<?xml version="1.0" encoding="utf-8"?>
<!-- Generator: Adobe Illustrator 21.0.0, SVG Export Plug-In . SVG Version: 6.00 Build 0)  -->
<svg version="1.1"
	 id="svg1126" inkscape:version="0.92.4 (5da689c313, 2019-01-14)" sodipodi:docname="shark-jaws-freesvg.org.svg" xmlns:cc="http://creativecommons.org/ns#" xmlns:dc="http://purl.org/dc/elements/1.1/" xmlns:inkscape="http://www.inkscape.org/namespaces/inkscape" xmlns:rdf="http://www.w3.org/1999/02/22-rdf-syntax-ns#" xmlns:sodipodi="http://sodipodi.sourceforge.net/DTD/sodipodi-0.dtd" xmlns:svg="http://www.w3.org/2000/svg"
	 xmlns="http://www.w3.org/2000/svg" xmlns:xlink="http://www.w3.org/1999/xlink" x="0px" y="0px" viewBox="0 0 845.8 724.4"
	 style="enable-background:new 0 0 845.8 724.4;" xml:space="preserve">
<style type="text/css">
	.st0{fill:#FFFFFF;}
</style>
<sodipodi:namedview  bordercolor="#666666" borderopacity="1" gridtolerance="10" guidetolerance="10" id="namedview1128" inkscape:current-layer="g1134" inkscape:cx="440" inkscape:cy="440" inkscape:pageopacity="0" inkscape:pageshadow="2" inkscape:window-height="1018" inkscape:window-maximized="1" inkscape:window-width="1920" inkscape:window-x="-8" inkscape:window-y="-8" inkscape:zoom="0.96477273" objecttolerance="10" pagecolor="#ffffff" showgrid="false">
	</sodipodi:namedview>
<g id="g1134" transform="matrix(1.3333333,0,0,-1.3333333,0,880)" inkscape:groupmode="layer" inkscape:label="shark-jaws-freesvg.org">
	<g id="g1379">
		<path id="path1144" inkscape:connector-curvature="0" class="st0" d="M17.9,32.2h3.7c1.1,0,2,0.1,2.7,0.3c0.6,0.2,1.2,0.5,1.5,0.9
			c0.5,0.5,1,1.3,1.3,2.2c0.3,0.9,0.5,2,0.5,3.3c0,1.8-0.3,3.2-0.9,4.2c-0.6,1-1.3,1.6-2.2,1.9c-0.6,0.2-1.6,0.4-2.9,0.4h-3.6
			L17.9,32.2z M15.7,30.1v17.2h5.9c1.3,0,2.4-0.1,3.1-0.2c1-0.2,1.8-0.6,2.5-1.2c0.9-0.8,1.6-1.7,2-2.9c0.5-1.2,0.7-2.6,0.7-4.1
			c0-1.3-0.2-2.5-0.5-3.5c-0.3-1-0.7-1.8-1.2-2.5c-0.5-0.7-1-1.2-1.6-1.6c-0.6-0.4-1.3-0.7-2.1-0.9c-0.8-0.2-1.7-0.3-2.8-0.3H15.7z"
			/>
		<path id="path1146" inkscape:connector-curvature="0" class="st0" d="M34.4,37.6h7c-0.1,1.1-0.4,1.8-0.8,2.4
			c-0.7,0.8-1.5,1.2-2.6,1.2c-1,0-1.8-0.3-2.5-1C34.8,39.5,34.4,38.7,34.4,37.6 M41.3,34.2l2.2-0.3c-0.3-1.3-1-2.3-1.9-3
			c-0.9-0.7-2.1-1.1-3.6-1.1c-1.8,0-3.3,0.6-4.3,1.7c-1.1,1.1-1.6,2.7-1.6,4.7c0,2.1,0.5,3.7,1.6,4.9c1.1,1.2,2.5,1.7,4.2,1.7
			c1.7,0,3-0.6,4.1-1.7c1.1-1.1,1.6-2.7,1.6-4.8c0-0.1,0-0.3,0-0.6h-9.3c0.1-1.4,0.5-2.4,1.2-3.2c0.7-0.7,1.6-1.1,2.6-1.1
			c0.8,0,1.4,0.2,2,0.6C40.5,32.6,41,33.3,41.3,34.2"/>
		<path id="path1148" inkscape:connector-curvature="0" class="st0" d="M45.3,33.9l2.1,0.3c0.1-0.8,0.4-1.5,1-1.9
			c0.5-0.4,1.3-0.7,2.3-0.7c1,0,1.7,0.2,2.2,0.6c0.5,0.4,0.7,0.9,0.7,1.4c0,0.5-0.2,0.9-0.6,1.1c-0.3,0.2-1,0.4-2.2,0.7
			c-1.6,0.4-2.6,0.7-3.2,1c-0.6,0.3-1.1,0.7-1.4,1.2c-0.3,0.5-0.5,1.1-0.5,1.7c0,0.6,0.1,1.1,0.4,1.5c0.3,0.5,0.6,0.9,1,1.2
			c0.3,0.2,0.8,0.4,1.3,0.6c0.6,0.2,1.2,0.3,1.8,0.3c1,0,1.8-0.1,2.6-0.4c0.7-0.3,1.3-0.7,1.6-1.1c0.4-0.5,0.6-1.1,0.7-1.9l-2.1-0.3
			c-0.1,0.6-0.4,1.1-0.8,1.5c-0.5,0.4-1.1,0.5-1.9,0.5c-1,0-1.7-0.2-2.1-0.5c-0.4-0.3-0.6-0.7-0.6-1.1c0-0.3,0.1-0.5,0.3-0.7
			c0.2-0.2,0.4-0.4,0.8-0.6c0.2-0.1,0.8-0.3,1.9-0.5c1.5-0.4,2.5-0.7,3.1-1c0.6-0.3,1.1-0.6,1.4-1.1c0.3-0.5,0.5-1.1,0.5-1.8
			c0-0.7-0.2-1.4-0.6-2c-0.4-0.6-1-1.1-1.8-1.4c-0.8-0.3-1.7-0.5-2.6-0.5c-1.6,0-2.9,0.3-3.7,1C46.1,31.5,45.5,32.5,45.3,33.9"/>
		<path id="path1150" inkscape:connector-curvature="0" class="st0" d="M58.2,42.6h2.1V30.1h-2.1V42.6z M58.2,47.4h2.1v-2.4h-2.1
			V47.4z"/>
		<path id="path1152" inkscape:connector-curvature="0" class="st0" d="M64.9,36.6c0-1.6,0.3-2.8,1-3.6c0.7-0.8,1.5-1.1,2.4-1.1
			c1,0,1.8,0.4,2.4,1.1c0.7,0.7,1,1.9,1,3.5c0,1.5-0.3,2.7-1,3.5c-0.7,0.8-1.5,1.2-2.4,1.2c-0.9,0-1.7-0.4-2.4-1.1
			S64.9,38.1,64.9,36.6 M63.1,29.1l2.1-0.3c0.1-0.6,0.3-1.1,0.7-1.4c0.5-0.4,1.2-0.6,2.1-0.6c1,0,1.7,0.2,2.3,0.6
			c0.5,0.4,0.9,0.9,1.1,1.6c0.1,0.4,0.2,1.3,0.2,2.7c-0.9-1.1-2.1-1.6-3.5-1.6c-1.7,0-3,0.6-4,1.9c-0.9,1.2-1.4,2.7-1.4,4.5
			c0,1.2,0.2,2.3,0.6,3.3c0.4,1,1.1,1.8,1.9,2.3c0.8,0.5,1.8,0.8,2.9,0.8c1.5,0,2.7-0.6,3.6-1.8v1.5h2V31.8c0-1.9-0.2-3.3-0.6-4.1
			c-0.4-0.8-1-1.5-1.9-1.9c-0.9-0.5-1.9-0.7-3.2-0.7c-1.5,0-2.7,0.3-3.6,1C63.5,26.7,63.1,27.8,63.1,29.1"/>
		<path id="path1154" inkscape:connector-curvature="0" class="st0" d="M76.9,30.1v12.5h1.9v-1.8c0.9,1.4,2.2,2.1,4,2.1
			c0.8,0,1.4-0.1,2.1-0.4c0.6-0.3,1.1-0.6,1.4-1.1c0.3-0.4,0.5-1,0.7-1.6c0.1-0.4,0.1-1.1,0.1-2.1v-7.7h-2.1v7.6
			c0,0.9-0.1,1.5-0.2,1.9c-0.2,0.4-0.5,0.8-0.9,1c-0.4,0.3-0.9,0.4-1.5,0.4c-0.9,0-1.7-0.3-2.3-0.9c-0.7-0.6-1-1.7-1-3.3v-6.8H76.9z
			"/>
		<path id="path1156" inkscape:connector-curvature="0" class="st0" d="M91.9,37.6h7c-0.1,1.1-0.4,1.8-0.8,2.4
			c-0.7,0.8-1.5,1.2-2.6,1.2c-1,0-1.8-0.3-2.4-1C92.3,39.5,91.9,38.7,91.9,37.6 M98.8,34.2l2.2-0.3c-0.3-1.3-1-2.3-1.9-3
			c-0.9-0.7-2.1-1.1-3.6-1.1c-1.8,0-3.3,0.6-4.3,1.7c-1.1,1.1-1.6,2.7-1.6,4.7c0,2.1,0.5,3.7,1.6,4.9s2.5,1.7,4.2,1.7
			c1.7,0,3-0.6,4.1-1.7c1.1-1.1,1.6-2.7,1.6-4.8c0-0.1,0-0.3,0-0.6h-9.3c0.1-1.4,0.5-2.4,1.2-3.2c0.7-0.7,1.6-1.1,2.6-1.1
			c0.8,0,1.4,0.2,2,0.6C98.1,32.6,98.5,33.3,98.8,34.2"/>
		<path id="path1158" inkscape:connector-curvature="0" class="st0" d="M105.1,36.4c0-1.6,0.3-2.8,1-3.6c0.7-0.8,1.5-1.2,2.4-1.2
			c0.9,0,1.7,0.4,2.4,1.1c0.6,0.8,1,1.9,1,3.5c0,1.7-0.3,3-1,3.8c-0.7,0.8-1.5,1.2-2.4,1.2c-0.9,0-1.7-0.4-2.4-1.2
			C105.4,39.2,105.1,38,105.1,36.4 M111.7,30.1v1.6c-0.8-1.2-2-1.9-3.5-1.9c-1,0-1.9,0.3-2.7,0.8c-0.8,0.5-1.5,1.3-1.9,2.3
			c-0.5,1-0.7,2.1-0.7,3.4c0,1.2,0.2,2.4,0.6,3.4c0.4,1,1,1.8,1.9,2.3c0.8,0.5,1.8,0.8,2.8,0.8c0.8,0,1.4-0.2,2-0.5
			c0.6-0.3,1.1-0.7,1.4-1.2v6.2h2.1V30.1H111.7z"/>
		<path id="path1160" inkscape:connector-curvature="0" class="st0" d="M131.7,36.4c-0.8-0.3-1.9-0.6-3.5-0.8
			c-0.9-0.1-1.5-0.3-1.8-0.4c-0.4-0.2-0.6-0.4-0.8-0.7c-0.2-0.3-0.3-0.6-0.3-1c0-0.6,0.2-1,0.6-1.4c0.4-0.4,1-0.6,1.9-0.6
			c0.8,0,1.5,0.2,2.2,0.5c0.6,0.4,1.1,0.8,1.4,1.5c0.2,0.5,0.3,1.2,0.3,2.1L131.7,36.4z M131.9,31.7c-0.8-0.7-1.5-1.1-2.3-1.4
			c-0.7-0.3-1.5-0.4-2.3-0.4c-1.4,0-2.4,0.3-3.2,1s-1.1,1.5-1.1,2.6c0,0.6,0.1,1.2,0.4,1.7c0.3,0.5,0.6,0.9,1.1,1.2
			c0.4,0.3,1,0.5,1.5,0.7c0.4,0.1,1,0.2,1.9,0.3c1.7,0.2,3,0.4,3.8,0.7c0,0.3,0,0.5,0,0.6c0,0.9-0.2,1.5-0.6,1.8
			c-0.5,0.5-1.3,0.7-2.4,0.7c-1,0-1.7-0.2-2.2-0.5c-0.5-0.3-0.8-1-1.1-1.9l-2.1,0.3c0.2,0.9,0.5,1.6,0.9,2.1c0.4,0.5,1.1,1,1.9,1.3
			c0.8,0.3,1.8,0.4,2.8,0.4c1.1,0,1.9-0.1,2.6-0.4c0.7-0.3,1.2-0.6,1.5-0.9c0.3-0.4,0.5-0.9,0.7-1.4c0.1-0.4,0.1-1,0.1-2v-2.8
			c0-2,0-3.2,0.1-3.7c0.1-0.5,0.3-1,0.5-1.5h-2.2C132.1,30.6,131.9,31.1,131.9,31.7"/>
		<path id="path1162" inkscape:connector-curvature="0" class="st0" d="M137.1,30.1v12.5h1.9v-1.8c0.9,1.4,2.2,2.1,4,2.1
			c0.8,0,1.4-0.1,2.1-0.4c0.6-0.3,1.1-0.6,1.4-1.1c0.3-0.4,0.5-1,0.7-1.6c0.1-0.4,0.1-1.1,0.1-2.1v-7.7h-2.1v7.6
			c0,0.9-0.1,1.5-0.2,1.9c-0.2,0.4-0.5,0.8-0.9,1c-0.4,0.3-0.9,0.4-1.5,0.4c-0.9,0-1.7-0.3-2.3-0.9c-0.7-0.6-1-1.7-1-3.3v-6.8H137.1
			z"/>
		<path id="path1164" inkscape:connector-curvature="0" class="st0" d="M151.9,36.4c0-1.6,0.3-2.8,1-3.6c0.7-0.8,1.5-1.2,2.4-1.2
			c0.9,0,1.7,0.4,2.4,1.1c0.6,0.8,1,1.9,1,3.5c0,1.7-0.3,3-1,3.8c-0.7,0.8-1.5,1.2-2.4,1.2c-0.9,0-1.7-0.4-2.4-1.2
			C152.2,39.2,151.9,38,151.9,36.4 M158.6,30.1v1.6c-0.8-1.2-2-1.9-3.5-1.9c-1,0-1.9,0.3-2.7,0.8c-0.8,0.5-1.5,1.3-1.9,2.3
			c-0.5,1-0.7,2.1-0.7,3.4c0,1.2,0.2,2.4,0.6,3.4c0.4,1,1,1.8,1.9,2.3c0.8,0.5,1.8,0.8,2.8,0.8c0.8,0,1.4-0.2,2-0.5
			c0.6-0.3,1.1-0.7,1.4-1.2v6.2h2.1V30.1H158.6z"/>
		<path id="path1166" inkscape:connector-curvature="0" class="st0" d="M170.5,30.1v12.5h1.9v-1.9c0.5,0.9,0.9,1.5,1.3,1.8
			c0.4,0.3,0.9,0.4,1.4,0.4c0.7,0,1.4-0.2,2.2-0.7l-0.7-2c-0.5,0.3-1,0.5-1.5,0.5c-0.5,0-0.9-0.1-1.2-0.4c-0.4-0.3-0.6-0.7-0.8-1.2
			c-0.2-0.8-0.4-1.6-0.4-2.5v-6.5H170.5z"/>
		<path id="path1168" inkscape:connector-curvature="0" class="st0" d="M180.1,37.6h7c-0.1,1.1-0.4,1.8-0.8,2.4
			c-0.7,0.8-1.5,1.2-2.6,1.2c-1,0-1.8-0.3-2.5-1C180.6,39.5,180.2,38.7,180.1,37.6 M187.1,34.2l2.2-0.3c-0.3-1.3-1-2.3-1.9-3
			c-0.9-0.7-2.1-1.1-3.6-1.1c-1.8,0-3.3,0.6-4.3,1.7c-1.1,1.1-1.6,2.7-1.6,4.7c0,2.1,0.5,3.7,1.6,4.9c1.1,1.2,2.5,1.7,4.2,1.7
			c1.7,0,3-0.6,4.1-1.7c1.1-1.1,1.6-2.7,1.6-4.8c0-0.1,0-0.3,0-0.6H180c0.1-1.4,0.5-2.4,1.2-3.2c0.7-0.7,1.6-1.1,2.6-1.1
			c0.8,0,1.4,0.2,2,0.6C186.3,32.6,186.8,33.3,187.1,34.2"/>
		<path id="path1170" inkscape:connector-curvature="0" class="st0" d="M191.9,47.4h2.1V30.1h-2.1V47.4z"/>
		<path id="path1172" inkscape:connector-curvature="0" class="st0" d="M198.9,37.6h7c-0.1,1.1-0.4,1.8-0.8,2.4
			c-0.7,0.8-1.5,1.2-2.6,1.2c-1,0-1.8-0.3-2.5-1C199.3,39.5,198.9,38.7,198.9,37.6 M205.8,34.2l2.2-0.3c-0.3-1.3-1-2.3-1.9-3
			c-0.9-0.7-2.1-1.1-3.6-1.1c-1.8,0-3.3,0.6-4.3,1.7c-1.1,1.1-1.6,2.7-1.6,4.7c0,2.1,0.5,3.7,1.6,4.9c1.1,1.2,2.5,1.7,4.2,1.7
			c1.7,0,3-0.6,4.1-1.7c1.1-1.1,1.6-2.7,1.6-4.8c0-0.1,0-0.3,0-0.6h-9.3c0.1-1.4,0.5-2.4,1.2-3.2c0.7-0.7,1.6-1.1,2.6-1.1
			c0.8,0,1.4,0.2,2,0.6C205.1,32.6,205.5,33.3,205.8,34.2"/>
		<path id="path1174" inkscape:connector-curvature="0" class="st0" d="M218.6,36.4c-0.8-0.3-1.9-0.6-3.5-0.8
			c-0.9-0.1-1.5-0.3-1.8-0.4c-0.4-0.2-0.6-0.4-0.8-0.7c-0.2-0.3-0.3-0.6-0.3-1c0-0.6,0.2-1,0.6-1.4c0.4-0.4,1-0.6,1.9-0.6
			c0.8,0,1.5,0.2,2.2,0.5c0.6,0.4,1.1,0.8,1.4,1.5c0.2,0.5,0.3,1.2,0.3,2.1L218.6,36.4z M218.8,31.7c-0.8-0.7-1.5-1.1-2.3-1.4
			c-0.7-0.3-1.5-0.4-2.3-0.4c-1.4,0-2.4,0.3-3.2,1c-0.7,0.7-1.1,1.5-1.1,2.6c0,0.6,0.1,1.2,0.4,1.7c0.3,0.5,0.6,0.9,1.1,1.2
			c0.4,0.3,1,0.5,1.5,0.7c0.4,0.1,1,0.2,1.9,0.3c1.7,0.2,3,0.4,3.8,0.7c0,0.3,0,0.5,0,0.6c0,0.9-0.2,1.5-0.6,1.8
			c-0.5,0.5-1.3,0.7-2.4,0.7c-1,0-1.7-0.2-2.2-0.5c-0.5-0.3-0.8-1-1-1.9l-2.1,0.3c0.2,0.9,0.5,1.6,0.9,2.1c0.4,0.5,1.1,1,1.9,1.3
			c0.8,0.3,1.8,0.4,2.8,0.4c1.1,0,1.9-0.1,2.6-0.4c0.7-0.3,1.2-0.6,1.5-0.9c0.3-0.4,0.5-0.9,0.7-1.4c0.1-0.4,0.1-1,0.1-2v-2.8
			c0-2,0-3.2,0.1-3.7c0.1-0.5,0.3-1,0.5-1.5h-2.2C219,30.6,218.9,31.1,218.8,31.7"/>
		<path id="path1176" inkscape:connector-curvature="0" class="st0" d="M223.2,33.9l2.1,0.3c0.1-0.8,0.4-1.5,1-1.9
			c0.5-0.4,1.3-0.7,2.3-0.7c1,0,1.7,0.2,2.2,0.6c0.5,0.4,0.7,0.9,0.7,1.4c0,0.5-0.2,0.9-0.6,1.1c-0.3,0.2-1,0.4-2.2,0.7
			c-1.6,0.4-2.6,0.7-3.2,1c-0.6,0.3-1.1,0.7-1.4,1.2c-0.3,0.5-0.5,1.1-0.5,1.7c0,0.6,0.1,1.1,0.4,1.5c0.3,0.5,0.6,0.9,1,1.2
			c0.3,0.2,0.8,0.4,1.3,0.6c0.6,0.2,1.2,0.3,1.8,0.3c1,0,1.8-0.1,2.6-0.4c0.7-0.3,1.3-0.7,1.6-1.1c0.4-0.5,0.6-1.1,0.7-1.9l-2.1-0.3
			c-0.1,0.6-0.4,1.1-0.8,1.5c-0.5,0.4-1.1,0.5-1.9,0.5c-1,0-1.7-0.2-2.1-0.5c-0.4-0.3-0.6-0.7-0.6-1.1c0-0.3,0.1-0.5,0.3-0.7
			c0.2-0.2,0.4-0.4,0.8-0.6c0.2-0.1,0.8-0.3,1.9-0.5c1.5-0.4,2.5-0.7,3.1-1c0.6-0.3,1.1-0.6,1.4-1.1c0.3-0.5,0.5-1.1,0.5-1.8
			c0-0.7-0.2-1.4-0.6-2c-0.4-0.6-1-1.1-1.8-1.4c-0.8-0.3-1.7-0.5-2.6-0.5c-1.6,0-2.9,0.3-3.7,1C224,31.5,223.4,32.5,223.2,33.9"/>
		<path id="path1178" inkscape:connector-curvature="0" class="st0" d="M237.7,37.6h7c-0.1,1.1-0.4,1.8-0.8,2.4
			c-0.7,0.8-1.5,1.2-2.6,1.2c-1,0-1.8-0.3-2.5-1C238.1,39.5,237.7,38.7,237.7,37.6 M244.6,34.2l2.2-0.3c-0.3-1.3-1-2.3-1.9-3
			c-0.9-0.7-2.1-1.1-3.6-1.1c-1.8,0-3.3,0.6-4.3,1.7c-1.1,1.1-1.6,2.7-1.6,4.7c0,2.1,0.5,3.7,1.6,4.9c1.1,1.2,2.5,1.7,4.2,1.7
			c1.7,0,3-0.6,4.1-1.7c1.1-1.1,1.6-2.7,1.6-4.8c0-0.1,0-0.3,0-0.6h-9.3c0.1-1.4,0.5-2.4,1.2-3.2c0.7-0.7,1.6-1.1,2.6-1.1
			c0.8,0,1.4,0.2,2,0.6C243.9,32.6,244.3,33.3,244.6,34.2"/>
		<path id="path1180" inkscape:connector-curvature="0" class="st0" d="M250.9,36.4c0-1.6,0.3-2.8,1-3.6c0.7-0.8,1.5-1.2,2.4-1.2
			c0.9,0,1.7,0.4,2.4,1.1c0.6,0.8,1,1.9,1,3.5c0,1.7-0.3,3-1,3.8c-0.7,0.8-1.5,1.2-2.4,1.2c-0.9,0-1.7-0.4-2.4-1.2
			C251.2,39.2,250.9,38,250.9,36.4 M257.5,30.1v1.6c-0.8-1.2-2-1.9-3.5-1.9c-1,0-1.9,0.3-2.7,0.8c-0.8,0.5-1.5,1.3-1.9,2.3
			c-0.5,1-0.7,2.1-0.7,3.4c0,1.2,0.2,2.4,0.6,3.4c0.4,1,1,1.8,1.9,2.3c0.8,0.5,1.8,0.8,2.8,0.8c0.8,0,1.4-0.2,2-0.5
			c0.6-0.3,1.1-0.7,1.4-1.2v6.2h2.1V30.1H257.5z"/>
		<path id="path1182" inkscape:connector-curvature="0" class="st0" d="M269.5,42.6h2.1V30.1h-2.1V42.6z M269.5,47.4h2.1v-2.4h-2.1
			V47.4z"/>
		<path id="path1184" inkscape:connector-curvature="0" class="st0" d="M274.9,30.1v12.5h1.9v-1.8c0.9,1.4,2.2,2.1,4,2.1
			c0.8,0,1.4-0.1,2.1-0.4c0.6-0.3,1.1-0.6,1.4-1.1c0.3-0.4,0.5-1,0.7-1.6c0.1-0.4,0.1-1.1,0.1-2.1v-7.7h-2.1v7.6
			c0,0.9-0.1,1.5-0.2,1.9c-0.2,0.4-0.5,0.8-0.9,1c-0.4,0.3-0.9,0.4-1.5,0.4c-0.9,0-1.7-0.3-2.3-0.9c-0.7-0.6-1-1.7-1-3.3v-6.8H274.9
			z"/>
		<path id="path1186" inkscape:connector-curvature="0" class="st0" d="M296.8,36.3c0-1.6,0.3-2.8,1-3.6c0.6-0.8,1.4-1.2,2.4-1.2
			c0.9,0,1.7,0.4,2.4,1.2c0.7,0.8,1,2,1,3.7c0,1.6-0.3,2.8-1,3.6c-0.7,0.8-1.4,1.2-2.3,1.2c-0.9,0-1.7-0.4-2.4-1.3
			C297.2,39.1,296.8,37.9,296.8,36.3 M294.9,25.4v17.3h1.9V41c0.5,0.6,1,1.1,1.5,1.4c0.6,0.3,1.3,0.5,2.1,0.5c1.1,0,2-0.3,2.8-0.8
			c0.8-0.5,1.4-1.3,1.8-2.3s0.6-2.1,0.6-3.3c0-1.3-0.2-2.4-0.7-3.4c-0.5-1-1.1-1.8-2-2.4c-0.9-0.5-1.8-0.8-2.8-0.8
			c-0.7,0-1.3,0.1-1.9,0.4c-0.6,0.3-1,0.7-1.4,1.1v-6.1L294.9,25.4z"/>
		<path id="path1188" inkscape:connector-curvature="0" class="st0" d="M316.5,30.1V32c-1-1.4-2.3-2.1-3.9-2.1
			c-0.7,0-1.4,0.1-2.1,0.4c-0.6,0.3-1.1,0.6-1.4,1.1c-0.3,0.4-0.5,1-0.6,1.6c-0.1,0.4-0.1,1.1-0.1,2v7.7h2.1v-6.9
			c0-1.1,0-1.8,0.1-2.2c0.1-0.6,0.4-1,0.8-1.3c0.4-0.3,1-0.5,1.6-0.5c0.6,0,1.2,0.2,1.8,0.5c0.6,0.3,0.9,0.8,1.2,1.3
			c0.2,0.6,0.3,1.4,0.3,2.4v6.7h2.1V30.1L316.5,30.1z"/>
		<path id="path1190" inkscape:connector-curvature="0" class="st0" d="M323.6,36.5c0-1.5,0.2-2.6,0.6-3.2c0.7-1.1,1.6-1.6,2.7-1.6
			c0.9,0,1.7,0.4,2.4,1.2c0.7,0.8,1,2,1,3.6c0,1.6-0.3,2.8-1,3.6c-0.6,0.8-1.4,1.2-2.3,1.2c-0.9,0-1.7-0.4-2.4-1.2
			C323.9,39.2,323.6,38,323.6,36.5 M323.6,30.1h-2v17.2h2.1v-6.1c0.9,1.1,2,1.7,3.4,1.7c0.8,0,1.5-0.2,2.2-0.5
			c0.7-0.3,1.3-0.7,1.7-1.3c0.4-0.6,0.8-1.2,1-2c0.3-0.8,0.4-1.6,0.4-2.5c0-2.1-0.5-3.8-1.6-5c-1.1-1.2-2.3-1.8-3.8-1.8
			c-1.5,0-2.6,0.6-3.5,1.8L323.6,30.1z"/>
		<path id="path1192" inkscape:connector-curvature="0" class="st0" d="M335,47.4h2.1V30.1H335V47.4z"/>
		<path id="path1194" inkscape:connector-curvature="0" class="st0" d="M340.4,42.6h2.1V30.1h-2.1V42.6z M340.4,47.4h2.1v-2.4h-2.1
			V47.4z"/>
		<path id="path1196" inkscape:connector-curvature="0" class="st0" d="M353.9,34.7l2.1-0.3c-0.2-1.4-0.8-2.6-1.7-3.4
			c-0.9-0.8-2.1-1.2-3.5-1.2c-1.7,0-3.1,0.6-4.1,1.7c-1,1.1-1.6,2.7-1.6,4.8c0,1.3,0.2,2.5,0.7,3.5c0.4,1,1.1,1.8,2,2.3
			c0.9,0.5,1.9,0.8,3,0.8c1.4,0,2.5-0.3,3.3-1c0.9-0.7,1.4-1.7,1.7-2.9l-2.1-0.3c-0.2,0.8-0.5,1.5-1,1.9c-0.5,0.4-1.1,0.6-1.8,0.6
			c-1.1,0-1.9-0.4-2.6-1.1c-0.7-0.8-1-2-1-3.6c0-1.7,0.3-2.9,1-3.7c0.6-0.8,1.5-1.1,2.5-1.1c0.8,0,1.5,0.3,2.1,0.8
			C353.4,32.9,353.8,33.7,353.9,34.7"/>
		<path id="path1198" inkscape:connector-curvature="0" class="st0" d="M365.9,36.4c0-1.6,0.3-2.8,1-3.6c0.7-0.8,1.5-1.2,2.4-1.2
			c0.9,0,1.7,0.4,2.4,1.1c0.6,0.8,1,1.9,1,3.5c0,1.7-0.3,3-1,3.8c-0.7,0.8-1.5,1.2-2.4,1.2c-0.9,0-1.7-0.4-2.4-1.2
			C366.2,39.2,365.9,38,365.9,36.4 M372.6,30.1v1.6c-0.8-1.2-2-1.9-3.5-1.9c-1,0-1.9,0.3-2.7,0.8c-0.8,0.5-1.5,1.3-1.9,2.3
			c-0.5,1-0.7,2.1-0.7,3.4c0,1.2,0.2,2.4,0.6,3.4c0.4,1,1,1.8,1.9,2.3c0.8,0.5,1.8,0.8,2.8,0.8c0.8,0,1.4-0.2,2-0.5
			c0.6-0.3,1.1-0.7,1.4-1.2v6.2h2.1V30.1H372.6z"/>
		<path id="path1200" inkscape:connector-curvature="0" class="st0" d="M379.2,36.4c0-1.6,0.3-2.8,1-3.6c0.7-0.8,1.6-1.2,2.6-1.2
			c1,0,1.9,0.4,2.6,1.2c0.7,0.8,1,2,1,3.7c0,1.5-0.4,2.7-1.1,3.5c-0.7,0.8-1.6,1.2-2.6,1.2c-1.1,0-1.9-0.4-2.6-1.2
			C379.6,39.2,379.2,38,379.2,36.4 M377.1,36.4c0,2.3,0.6,4,1.9,5.1c1.1,0.9,2.4,1.4,3.9,1.4c1.7,0,3.1-0.6,4.2-1.7
			c1.1-1.1,1.6-2.7,1.6-4.7c0-1.6-0.2-2.9-0.7-3.8c-0.5-0.9-1.2-1.6-2.1-2.1c-0.9-0.5-1.9-0.8-3-0.8c-1.7,0-3.2,0.6-4.2,1.7
			C377.6,32.7,377.1,34.3,377.1,36.4"/>
		<path id="path1202" inkscape:connector-curvature="0" class="st0" d="M391.2,30.1v12.5h1.9v-1.7c0.4,0.6,0.9,1.1,1.6,1.5
			c0.6,0.4,1.4,0.6,2.2,0.6c0.9,0,1.7-0.2,2.3-0.6c0.6-0.4,1-0.9,1.2-1.6c1,1.5,2.3,2.2,3.9,2.2c1.2,0,2.2-0.3,2.9-1
			c0.7-0.7,1-1.7,1-3.2v-8.6H406V38c0,0.8-0.1,1.5-0.2,1.8c-0.1,0.4-0.4,0.7-0.7,0.9c-0.4,0.2-0.8,0.3-1.3,0.3
			c-0.9,0-1.6-0.3-2.2-0.9c-0.6-0.6-0.9-1.5-0.9-2.8v-7.3h-2.1v8.1c0,0.9-0.2,1.6-0.5,2.1c-0.3,0.5-0.9,0.7-1.7,0.7
			c-0.6,0-1.1-0.2-1.7-0.5c-0.5-0.3-0.9-0.8-1.1-1.4c-0.2-0.6-0.3-1.5-0.3-2.6v-6.5L391.2,30.1z"/>
		<path id="path1204" inkscape:connector-curvature="0" class="st0" d="M419.2,36.4c-0.8-0.3-1.9-0.6-3.5-0.8
			c-0.9-0.1-1.5-0.3-1.8-0.4c-0.4-0.2-0.6-0.4-0.8-0.7c-0.2-0.3-0.3-0.6-0.3-1c0-0.6,0.2-1,0.6-1.4c0.4-0.4,1-0.6,1.9-0.6
			c0.8,0,1.5,0.2,2.2,0.5c0.6,0.4,1.1,0.8,1.4,1.5c0.2,0.5,0.3,1.2,0.3,2.1L419.2,36.4z M419.4,31.7c-0.8-0.7-1.5-1.1-2.3-1.4
			c-0.7-0.3-1.5-0.4-2.3-0.4c-1.4,0-2.4,0.3-3.2,1c-0.7,0.7-1.1,1.5-1.1,2.6c0,0.6,0.1,1.2,0.4,1.7c0.3,0.5,0.6,0.9,1.1,1.2
			c0.5,0.3,1,0.5,1.5,0.7c0.4,0.1,1,0.2,1.9,0.3c1.7,0.2,3,0.4,3.8,0.7c0,0.3,0,0.5,0,0.6c0,0.9-0.2,1.5-0.6,1.8
			c-0.5,0.5-1.3,0.7-2.4,0.7c-1,0-1.7-0.2-2.2-0.5c-0.5-0.3-0.8-1-1-1.9l-2.1,0.3c0.2,0.9,0.5,1.6,0.9,2.1c0.4,0.5,1.1,1,1.9,1.3
			c0.8,0.3,1.8,0.4,2.8,0.4c1.1,0,1.9-0.1,2.6-0.4c0.7-0.3,1.2-0.6,1.5-0.9c0.3-0.4,0.5-0.9,0.7-1.4c0.1-0.4,0.1-1,0.1-2v-2.8
			c0-2,0-3.2,0.1-3.7c0.1-0.5,0.3-1,0.5-1.5h-2.2C419.6,30.6,419.5,31.1,419.4,31.7"/>
		<path id="path1206" inkscape:connector-curvature="0" class="st0" d="M424.7,42.6h2.1V30.1h-2.1V42.6z M424.7,47.4h2.1v-2.4h-2.1
			V47.4z"/>
		<path id="path1208" inkscape:connector-curvature="0" class="st0" d="M430,30.1v12.5h1.9v-1.8c0.9,1.4,2.2,2.1,4,2.1
			c0.8,0,1.4-0.1,2.1-0.4c0.6-0.3,1.1-0.6,1.4-1.1c0.3-0.4,0.5-1,0.7-1.6c0.1-0.4,0.1-1.1,0.1-2.1v-7.7H438v7.6
			c0,0.9-0.1,1.5-0.2,1.9c-0.2,0.4-0.5,0.8-0.9,1c-0.4,0.3-0.9,0.4-1.5,0.4c-0.9,0-1.7-0.3-2.3-0.9c-0.7-0.6-1-1.7-1-3.3v-6.8H430z"
			/>
		<path id="path1210" inkscape:connector-curvature="0" class="st0" d="M452,36.5c0-1.5,0.2-2.6,0.6-3.2c0.7-1.1,1.6-1.6,2.7-1.6
			c0.9,0,1.7,0.4,2.4,1.2c0.7,0.8,1,2,1,3.6c0,1.6-0.3,2.8-1,3.6c-0.6,0.8-1.4,1.2-2.3,1.2c-0.9,0-1.7-0.4-2.4-1.2
			C452.3,39.2,452,38,452,36.5 M452,30.1h-2v17.2h2.1v-6.1c0.9,1.1,2,1.7,3.4,1.7c0.8,0,1.5-0.2,2.2-0.5c0.7-0.3,1.3-0.7,1.7-1.3
			c0.4-0.6,0.8-1.2,1-2c0.3-0.8,0.4-1.6,0.4-2.5c0-2.1-0.5-3.8-1.6-5c-1.1-1.2-2.3-1.8-3.8-1.8c-1.5,0-2.6,0.6-3.5,1.8L452,30.1z"/>
		<path id="path1212" inkscape:connector-curvature="0" class="st0" d="M463.4,25.3l-0.2,2c0.5-0.1,0.9-0.2,1.2-0.2
			c0.5,0,0.8,0.1,1.1,0.2c0.3,0.2,0.5,0.4,0.7,0.7c0.1,0.2,0.3,0.7,0.6,1.6c0,0.1,0.1,0.3,0.2,0.5l-4.8,12.5h2.3l2.6-7.2
			c0.3-0.9,0.6-1.9,0.9-2.9c0.2,0.9,0.5,1.9,0.9,2.8l2.7,7.3h2.1L469,29.9c-0.5-1.4-0.9-2.3-1.2-2.8c-0.4-0.7-0.8-1.2-1.3-1.5
			c-0.5-0.3-1.1-0.5-1.7-0.5C464.3,25.1,463.9,25.2,463.4,25.3"/>
		<path id="path1214" inkscape:connector-curvature="0" class="st0" d="M482.5,30.1v17.2h11.6v-2h-9.3V40h8.1v-2h-8.1v-7.8
			L482.5,30.1z"/>
		<path id="path1216" inkscape:connector-curvature="0" class="st0" d="M496.8,30.1v12.5h1.9v-1.9c0.5,0.9,0.9,1.5,1.3,1.8
			c0.4,0.3,0.9,0.4,1.4,0.4c0.7,0,1.4-0.2,2.2-0.7l-0.7-2c-0.5,0.3-1,0.5-1.5,0.5c-0.5,0-0.9-0.1-1.2-0.4c-0.4-0.3-0.6-0.7-0.8-1.2
			c-0.2-0.8-0.4-1.6-0.4-2.5v-6.5H496.8z"/>
		<path id="path1218" inkscape:connector-curvature="0" class="st0" d="M506.5,37.6h7c-0.1,1.1-0.4,1.8-0.8,2.4
			c-0.7,0.8-1.5,1.2-2.6,1.2c-1,0-1.8-0.3-2.5-1C506.9,39.5,506.5,38.7,506.5,37.6 M513.4,34.2l2.2-0.3c-0.3-1.3-1-2.3-1.9-3
			s-2.1-1.1-3.6-1.1c-1.8,0-3.3,0.6-4.3,1.7c-1.1,1.1-1.6,2.7-1.6,4.7c0,2.1,0.5,3.7,1.6,4.9s2.5,1.7,4.2,1.7c1.7,0,3-0.6,4.1-1.7
			c1.1-1.1,1.6-2.7,1.6-4.8c0-0.1,0-0.3,0-0.6h-9.3c0.1-1.4,0.5-2.4,1.2-3.2c0.7-0.7,1.6-1.1,2.6-1.1c0.8,0,1.4,0.2,2,0.6
			C512.6,32.6,513.1,33.3,513.4,34.2"/>
		<path id="path1220" inkscape:connector-curvature="0" class="st0" d="M519.8,37.6h7c-0.1,1.1-0.4,1.8-0.8,2.4
			c-0.7,0.8-1.5,1.2-2.6,1.2c-1,0-1.8-0.3-2.5-1C520.3,39.5,519.9,38.7,519.8,37.6 M526.8,34.2l2.2-0.3c-0.3-1.3-1-2.3-1.9-3
			s-2.1-1.1-3.6-1.1c-1.8,0-3.3,0.6-4.3,1.7c-1.1,1.1-1.6,2.7-1.6,4.7c0,2.1,0.5,3.7,1.6,4.9s2.5,1.7,4.2,1.7c1.7,0,3-0.6,4.1-1.7
			c1.1-1.1,1.6-2.7,1.6-4.8c0-0.1,0-0.3,0-0.6h-9.3c0.1-1.4,0.5-2.4,1.2-3.2c0.7-0.7,1.6-1.1,2.6-1.1c0.8,0,1.4,0.2,2,0.6
			C526,32.6,526.5,33.3,526.8,34.2"/>
		<path id="path1222" inkscape:connector-curvature="0" class="st0" d="M531.1,35.7l2.2,0.2c0.1-0.9,0.3-1.6,0.7-2.1s0.9-1,1.7-1.3
			c0.8-0.3,1.7-0.5,2.6-0.5c0.9,0,1.6,0.1,2.3,0.4c0.7,0.3,1.2,0.6,1.5,1.1c0.3,0.5,0.5,0.9,0.5,1.5c0,0.5-0.2,1-0.5,1.4
			c-0.3,0.4-0.8,0.7-1.5,1c-0.5,0.2-1.5,0.5-3.1,0.8c-1.6,0.4-2.7,0.7-3.3,1.1c-0.8,0.4-1.4,1-1.8,1.6c-0.4,0.6-0.6,1.4-0.6,2.1
			c0,0.9,0.2,1.7,0.7,2.4c0.5,0.8,1.2,1.3,2.2,1.7c0.9,0.4,2,0.6,3.2,0.6c1.3,0,2.4-0.2,3.4-0.6c1-0.4,1.7-1,2.3-1.8
			c0.5-0.8,0.8-1.7,0.8-2.7l-2.2-0.2c-0.1,1.1-0.5,1.9-1.2,2.5c-0.7,0.6-1.7,0.8-3,0.8c-1.4,0-2.4-0.3-3-0.8
			c-0.6-0.5-0.9-1.1-0.9-1.8c0-0.6,0.2-1.1,0.7-1.5c0.4-0.4,1.6-0.8,3.4-1.2c1.9-0.4,3.1-0.8,3.8-1.1c1-0.5,1.7-1,2.2-1.8
			s0.7-1.5,0.7-2.4c0-0.9-0.3-1.8-0.8-2.6c-0.5-0.8-1.3-1.4-2.3-1.9c-1-0.5-2.1-0.7-3.3-0.7c-1.6,0-2.9,0.2-3.9,0.7
			c-1.1,0.5-1.9,1.1-2.5,2.1C531.5,33.5,531.2,34.5,531.1,35.7"/>
		<path id="path1224" inkscape:connector-curvature="0" class="st0" d="M552.9,30.1l-6.7,17.2h2.5l4.5-12.5c0.4-1,0.7-1.9,0.9-2.8
			c0.3,0.9,0.6,1.9,0.9,2.8l4.7,12.5h2.3l-6.7-17.2L552.9,30.1z"/>
		<path id="path1226" inkscape:connector-curvature="0" class="st0" d="M572.1,36.9v2h7.3v-6.4c-1.1-0.9-2.3-1.6-3.5-2
			c-1.2-0.5-2.4-0.7-3.7-0.7c-1.7,0-3.2,0.4-4.6,1.1c-1.4,0.7-2.4,1.8-3.1,3.1c-0.7,1.4-1.1,2.9-1.1,4.6c0,1.7,0.4,3.2,1.1,4.7
			c0.7,1.5,1.7,2.5,3,3.2c1.3,0.7,2.8,1.1,4.5,1.1c1.2,0,2.4-0.2,3.4-0.6s1.8-1,2.4-1.7c0.6-0.7,1-1.7,1.3-2.8L577,42
			c-0.3,0.9-0.6,1.6-1,2.1c-0.4,0.5-0.9,0.9-1.6,1.2c-0.7,0.3-1.5,0.5-2.4,0.5c-1,0-1.9-0.2-2.7-0.5c-0.8-0.3-1.4-0.7-1.8-1.3
			c-0.5-0.5-0.8-1.1-1.1-1.7c-0.4-1.1-0.7-2.2-0.7-3.5c0-1.5,0.3-2.8,0.8-3.9c0.5-1,1.3-1.8,2.3-2.3c1-0.5,2.1-0.8,3.2-0.8
			c1,0,2,0.2,2.9,0.6c0.9,0.4,1.7,0.8,2.1,1.2v3.2L572.1,36.9z"/>
		<path id="path1228" inkscape:connector-curvature="0" class="st0" d="M583,32.5h2.4v-2.4H583V32.5z"/>
		<path id="path1230" inkscape:connector-curvature="0" class="st0" d="M590.5,36.4c0-1.6,0.3-2.8,1-3.6c0.7-0.8,1.6-1.2,2.6-1.2
			c1,0,1.9,0.4,2.6,1.2c0.7,0.8,1,2,1,3.7c0,1.5-0.4,2.7-1.1,3.5c-0.7,0.8-1.6,1.2-2.6,1.2c-1.1,0-1.9-0.4-2.6-1.2
			C590.9,39.2,590.5,38,590.5,36.4 M588.3,36.4c0,2.3,0.6,4,1.9,5.1c1.1,0.9,2.4,1.4,3.9,1.4c1.7,0,3.1-0.6,4.2-1.7
			c1.1-1.1,1.6-2.7,1.6-4.7c0-1.6-0.2-2.9-0.7-3.8c-0.5-0.9-1.2-1.6-2.1-2.1c-0.9-0.5-1.9-0.8-3-0.8c-1.7,0-3.2,0.6-4.2,1.7
			C588.9,32.7,588.3,34.3,588.3,36.4"/>
		<path id="path1232" inkscape:connector-curvature="0" class="st0" d="M602.5,30.1v12.5h1.9v-1.9c0.5,0.9,0.9,1.5,1.3,1.8
			c0.4,0.3,0.9,0.4,1.4,0.4c0.7,0,1.4-0.2,2.2-0.7l-0.7-2c-0.5,0.3-1,0.5-1.5,0.5c-0.5,0-0.9-0.1-1.2-0.4c-0.4-0.3-0.6-0.7-0.8-1.2
			c-0.2-0.8-0.4-1.6-0.4-2.5v-6.5H602.5z"/>
		<path id="path1234" inkscape:connector-curvature="0" class="st0" d="M611.9,36.6c0-1.6,0.3-2.8,1-3.6c0.6-0.8,1.5-1.1,2.4-1.1
			c1,0,1.8,0.4,2.4,1.1c0.7,0.7,1,1.9,1,3.5c0,1.5-0.3,2.7-1,3.5c-0.7,0.8-1.5,1.2-2.4,1.2c-0.9,0-1.7-0.4-2.4-1.1
			C612.2,39.2,611.9,38.1,611.9,36.6 M610.1,29.1l2.1-0.3c0.1-0.6,0.3-1.1,0.7-1.4c0.5-0.4,1.2-0.6,2.1-0.6c1,0,1.7,0.2,2.3,0.6
			c0.5,0.4,0.9,0.9,1.1,1.6c0.1,0.4,0.2,1.3,0.2,2.7c-0.9-1.1-2.1-1.6-3.5-1.6c-1.7,0-3,0.6-4,1.9c-0.9,1.2-1.4,2.7-1.4,4.5
			c0,1.2,0.2,2.3,0.6,3.3c0.4,1,1.1,1.8,1.9,2.3c0.8,0.5,1.8,0.8,2.9,0.8c1.5,0,2.7-0.6,3.6-1.8v1.5h2V31.8c0-1.9-0.2-3.3-0.6-4.1
			c-0.4-0.8-1-1.5-1.9-1.9c-0.9-0.5-1.9-0.7-3.2-0.7c-1.5,0-2.7,0.3-3.6,1S610.1,27.8,610.1,29.1"/>
	</g>
	<g id="g1382">
		<path id="path1236" inkscape:connector-curvature="0" class="st0" d="M201,160c-99.5,17-167.6,51.8-167.6,92
			c0,22.5,21.4,43.3,57.6,60.2C34.8,295.5,0,272.3,0,246.6C0,206.7,83.7,172.8,201,160 M634.4,182.6c-71.7-29-185.1-47.8-312.8-47.8
			c-127.7,0-241.1,18.7-312.8,47.8c48.5-38.6,170.3-65.9,312.8-65.9C464.1,116.7,585.9,144.1,634.4,182.6 M514.2,300
			c42.8-13.9,69-32.5,69-53c0-43-115.4-77.8-257.7-77.8c-51.9,0-100.3,4.6-140.8,12.6c47.1-15.3,114.2-24.8,188.7-24.8
			c142.3,0,257.7,34.8,257.7,77.8C631.1,262.1,584.6,286.1,514.2,300 M413,507.5l14.2-20.8l1.7,21.4c0.2,2-1.2,3.7-3.1,4.1l-2,0.4
			c-2.4,0.4-4.9,0.7-7.3,0.9c-1.5,0.1-2.9-0.6-3.6-1.9C412,510.3,412.1,508.8,413,507.5 M380.4,507.9c-4.5-1.6-8.9-3.4-13.2-5.3
			c-0.4-0.2-0.8-0.4-1.2-0.6c-1.2-0.6-2-1.7-2.1-3c-0.2-1.3,0.3-2.6,1.4-3.4l23.8-19.9l-3.5,29c-0.1,1.2-0.8,2.2-1.8,2.8
			C382.6,508.2,381.5,508.3,380.4,507.9 M408.9,479.8l-0.4,29.8c0,1.1-0.4,2.1-1.3,2.8c-0.8,0.7-1.8,1.1-2.9,1
			c-4.3-0.4-8.6-1.1-12.8-2.1c-1.3-0.3-2.3-1.2-2.7-2.5c-0.4-1.3-0.2-2.6,0.6-3.6L408.9,479.8z M349.7,464.5l16.6-5l-4.9,31.4
			c-0.2,1.6-1.3,2.8-2.9,3.1c-1.5,0.4-3.1-0.2-4-1.5c-2.2-3-3.8-6.3-5-10.2c-1.2-4-2.2-8-3.2-12
			C345.6,467.9,347.1,465.3,349.7,464.5 M347.4,436.9l16.8,2.3L352,455.6c-1.2,1.7-3.2,2.4-5.2,1.9c-2-0.5-3.4-2.1-3.7-4.1
			c-0.5-3.7-1-7.4-1.3-11.1c-0.1-1.6,0.4-3,1.5-4.1C344.4,437.1,345.8,436.7,347.4,436.9 M348.9,405.6l10.8,5.5l-9.7,12.4
			c-1.3,1.7-3.6,2.4-5.6,1.6c-2.1-0.7-3.4-2.6-3.3-4.8c0.1-3.6,0.3-7.1,0.6-10.7c0.1-1.7,1.1-3.1,2.6-3.9
			C345.7,404.8,347.4,404.8,348.9,405.6 M351.7,377.7l10.1,7.3l-8.8,7.1c-1.7,1.4-3.9,1.5-5.8,0.4c-1.8-1.1-2.7-3.2-2.3-5.3
			c0.6-2.6,1.2-5.2,1.9-7.8c0.3-1,1-1.8,1.9-2.1C349.9,376.9,350.9,377.1,351.7,377.7 M359.3,357.4l4.1,7l-7.9,5.3
			c-1.1,0.7-2.5,0.7-3.6-0.1c-1.1-0.8-1.5-2.1-1.1-3.4c0.9-2.8,1.9-5.5,2.8-8.3c0.4-1.2,1.4-1.9,2.6-2
			C357.5,355.7,358.6,356.3,359.3,357.4 M463.8,311.2c0.2-2.2,1.4-3.9,3.4-4.8c2-0.9,4.1-0.6,5.8,0.7c0.9,0.7,1.7,1.4,2.3,2.1
			c1.3,1.4,1.8,3.2,1.6,5.1c-0.2,1.9-1.2,3.5-2.8,4.6l-11.7,8L463.8,311.2z M439.4,302.5c-0.5-1.6-0.1-3.2,1-4.5
			c1.1-1.2,2.7-1.7,4.4-1.4c2.8,0.6,5.9,1.4,9,2.2c2.1,0.6,3.6,2.2,4.1,4.4c0.5,2.2-0.3,4.3-2,5.6l-11.6,9.4L439.4,302.5z
			 M416.5,301c-1-1.4-1.2-3.1-0.4-4.7c0.8-1.6,2.2-2.5,4-2.6c2.7-0.1,5.4-0.1,8.1,0.2c1.7,0.1,3.1,1.1,3.8,2.7
			c0.7,1.5,0.6,3.2-0.4,4.6l-7.4,10.4L416.5,301z M403.8,316.4l-10.1-10.3c-0.9-0.9-1.3-2.1-1-3.4c0.2-1.3,1-2.2,2.1-2.8
			c2.6-1.3,5.4-2.4,8.2-3.3c1.7-0.5,3.5-0.1,4.7,1.2c1.3,1.3,1.6,3.1,1,4.8L403.8,316.4z M374,323.2c-1.1-0.5-1.8-1.5-2-2.6
			c-0.2-1.2,0-2.3,0.8-3.2c2.6-3.2,5.4-6.1,8.5-8.7c1.2-1,2.8-1.2,4.2-0.5c1.4,0.7,2.2,2.2,2.1,3.7l-1.5,17.5L374,323.2z
			 M478.3,341.5l-6.7,2l-0.7-7.2c-0.8-4.1,2.3-7.9,6.5-7.9c3.6,0,6.6,3,6.6,6.6C484,338.3,481.5,341.1,478.3,341.5 M467.3,360
			l-5.8,1.7l-0.6-6.3c-0.7-3.5,2-6.9,5.6-6.9c3.2,0,5.7,2.6,5.7,5.7C472.2,357.2,470,359.6,467.3,360 M457.1,377.5l-5.8,1.7
			l-0.6-6.3c-0.7-3.5,2-6.9,5.6-6.9c3.2,0,5.7,2.6,5.7,5.7C462,374.7,459.9,377.1,457.1,377.5 M448.3,392.2l-4.5,1.3l-0.5-4.9
			c-0.6-2.7,1.5-5.3,4.4-5.3c2.5,0,4.5,2,4.5,4.5C452.2,390.1,450.5,391.9,448.3,392.2 M441.2,406.2l-2.9-0.2l-1.2-2.8
			c-0.5-2.3,1.3-4.4,3.6-4.4c2,0,3.7,1.7,3.7,3.7C444.4,404.4,443,405.9,441.2,406.2 M435.9,419.8l-3.1,0.1l-1-3
			c-0.5-2.3,1.3-4.4,3.6-4.4c2,0,3.7,1.7,3.7,3.7C439.1,418,437.7,419.6,435.9,419.8 M428.1,426.9l2.7-1.6l2.3,2.2
			c1.5,1.8,1,4.5-1.1,5.6c-1.8,1-4.1,0.3-5-1.5C426.1,430,426.6,427.9,428.1,426.9 M425.9,442l1.7-2.4l3,0.4
			c2.2,0.8,3.1,3.4,1.9,5.4c-1.1,1.7-3.4,2.3-5.1,1.2C425.7,445.7,425.1,443.7,425.9,442 M422.9,455.2l2.2-4.2l3.8,3.1
			c2.4,1.5,2.8,4.8,0.8,6.9c-1.7,1.8-4.5,1.8-6.3,0.1C421.8,459.5,421.6,457,422.9,455.2 M422.3,472.1l1.3-4.5l4.4,2.2
			c2.6,1,3.7,4.2,2.2,6.6c-1.3,2.1-4.1,2.7-6.2,1.4C422,476.6,421.4,474.1,422.3,472.1 M374.6,342.4l-9.3-1.1
			c-1.2-0.1-2.2-0.8-2.9-1.9c-0.6-1.1-0.7-2.3-0.2-3.4c0.3-0.8,0.6-1.5,0.9-2.3c0.5-1.3,1.1-2.5,1.7-3.7c0.7-1.5,2.3-2.3,3.9-2.1
			c1.7,0.2,2.9,1.4,3.3,3L374.6,342.4z M251,446.7c-9.4,0-18.4-10.6-20.1-23.8c-1.7-13.1,4.5-23.8,13.9-23.8
			c9.4,0,18.4,10.6,20.1,23.8c0.6,4.3,0.3,8.3-0.7,11.8c-1.3-5.6-5.3-9.9-9.5-9.9c-4.6,0-7.6,5.2-6.7,11.6c0.6,4.3,2.8,8.1,5.5,10.1
			C252.7,446.6,251.9,446.7,251,446.7 M433.6,519.1c-0.9,20.6-8.7,45.6-20.8,62.7c-11.5,16.3-27.6,29.5-41.6,43.9
			c-4.6,4.7-10.5,7-17.1,6.7c-6.6-0.4-12.2-3.3-16.3-8.5c-20.8-26.5-43.5-94.1-57.7-181.7c-3.2,12.8-11.6,21.6-22.7,21.6
			c-15.9,0-31.2-18.1-34.1-40.4c-2.9-22.3,7.6-40.4,23.6-40.4c10.7,0,21.1,8.1,27.7,20.2c-5.4-42.9-10.6-102.3-10.2-153.2
			c0.2-27.1,21.9-49.1,48.9-49.9c3.7-0.1,7.3-0.2,11-0.2c35.9-0.4,76.8,1.8,111.5,10.9c12.3,3.2,48.2,14,49.1,30.3
			c0.6,9.9,3.1,19.8,4.3,29.6c6.9,28,5.1,43.1,0.9,55.5c-2.9-27.1-22.8-34.3-55.3-39.5c-33.7-5.4-65.7,12.5-78.6,44.1
			c-9.4,22.8-18.1,45.8-21.1,70.1c-3.5,27.9-1.1,55.8,7.2,83.7c3.4,11.6,11,20.2,22,25.1C384.5,518.9,413.2,522.8,433.6,519.1
			 M156.8,236.2c3.2,21.7,6.8,43,10.8,63.9c-11.1-15.1-19.8-32.4-23.4-54.4c-49.1-3.7-72.9,5.6-73.2,26.8
			c23.2,32,55.7,52.8,102.4,56.4c28.4,132.4,74.8,244.2,152,324.4c7.9,8.2,20.6,9,29.5,1.9c25.2-20.2,39.7-37.7,62.9-70
			C450.6,538,427,472.7,442,423c12-39.8,39.3-55.1,51.9-94.7c9-28.2,0.1-59.2-1.6-88.8C488,164.9,148.4,180,156.8,236.2"/>
	</g>
</g>
</svg>
