<?xml version="1.0" encoding="utf-8"?>
<!-- Generator: Adobe Illustrator 21.0.0, SVG Export Plug-In . SVG Version: 6.00 Build 0)  -->
<svg version="1.1"
	 id="svg1073" inkscape:version="0.92.4 (5da689c313, 2019-01-14)" sodipodi:docname="glass-and-bottle-silhouette-freesvg.org.svg" xmlns:cc="http://creativecommons.org/ns#" xmlns:dc="http://purl.org/dc/elements/1.1/" xmlns:inkscape="http://www.inkscape.org/namespaces/inkscape" xmlns:rdf="http://www.w3.org/1999/02/22-rdf-syntax-ns#" xmlns:sodipodi="http://sodipodi.sourceforge.net/DTD/sodipodi-0.dtd" xmlns:svg="http://www.w3.org/2000/svg"
	 xmlns="http://www.w3.org/2000/svg" xmlns:xlink="http://www.w3.org/1999/xlink" x="0px" y="0px" viewBox="0 0 474.2 877.9"
	 style="enable-background:new 0 0 474.2 877.9;" xml:space="preserve">
<style type="text/css">
	.st0{fill:#FFFFFF;}
</style>
<sodipodi:namedview  bordercolor="#666666" borderopacity="1" gridtolerance="10" guidetolerance="10" id="namedview1075" inkscape:current-layer="g1081" inkscape:cx="529.49153" inkscape:cy="324.40678" inkscape:pageopacity="0" inkscape:pageshadow="2" inkscape:window-height="1018" inkscape:window-maximized="1" inkscape:window-width="1920" inkscape:window-x="-8" inkscape:window-y="-8" inkscape:zoom="0.62209389" objecttolerance="10" pagecolor="#ffffff" showgrid="false">
	</sodipodi:namedview>
<g id="g1081" transform="matrix(1.3333333,0,0,-1.3333333,0,880)" inkscape:groupmode="layer" inkscape:label="glass-and-bottle-silhouette-freesvg.org">
	<g id="g1869">
		<path id="path1091" inkscape:connector-curvature="0" class="st0" d="M-122-25.5h3.7c1.1,0,2,0.1,2.7,0.3c0.6,0.2,1.2,0.5,1.5,0.9
			c0.5,0.5,1,1.3,1.3,2.2c0.3,0.9,0.5,2,0.5,3.3c0,1.8-0.3,3.2-0.9,4.2c-0.6,1-1.3,1.6-2.2,1.9c-0.6,0.2-1.6,0.4-2.9,0.4h-3.6V-25.5
			z M-124.2-27.6v17.2h5.9c1.3,0,2.4-0.1,3.1-0.2c1-0.2,1.8-0.6,2.5-1.2c0.9-0.8,1.6-1.7,2-2.9c0.5-1.2,0.7-2.6,0.7-4.1
			c0-1.3-0.2-2.5-0.5-3.5c-0.3-1-0.7-1.8-1.2-2.5c-0.5-0.7-1-1.2-1.6-1.6c-0.6-0.4-1.3-0.7-2.1-0.9c-0.8-0.2-1.7-0.3-2.8-0.3H-124.2
			z"/>
		<path id="path1093" inkscape:connector-curvature="0" class="st0" d="M-105.6-20.1h7c-0.1,1.1-0.4,1.8-0.8,2.4
			c-0.7,0.8-1.5,1.2-2.6,1.2c-1,0-1.8-0.3-2.4-1C-105.1-18.2-105.5-19-105.6-20.1 M-98.6-23.5l2.2-0.3c-0.3-1.3-1-2.3-1.9-3
			c-0.9-0.7-2.1-1.1-3.6-1.1c-1.8,0-3.3,0.6-4.3,1.7c-1.1,1.1-1.6,2.7-1.6,4.7c0,2.1,0.5,3.7,1.6,4.9c1.1,1.2,2.5,1.7,4.2,1.7
			c1.7,0,3-0.6,4.1-1.7c1.1-1.1,1.6-2.7,1.6-4.8c0-0.1,0-0.3,0-0.6h-9.3c0.1-1.4,0.5-2.4,1.2-3.2c0.7-0.7,1.6-1.1,2.6-1.1
			c0.8,0,1.4,0.2,2,0.6C-99.4-25.1-98.9-24.4-98.6-23.5"/>
		<path id="path1095" inkscape:connector-curvature="0" class="st0" d="M-94.6-23.8l2.1,0.3c0.1-0.8,0.4-1.5,1-1.9
			c0.5-0.4,1.3-0.7,2.3-0.7c1,0,1.7,0.2,2.2,0.6c0.5,0.4,0.7,0.9,0.7,1.4c0,0.5-0.2,0.9-0.6,1.1c-0.3,0.2-1,0.4-2.2,0.7
			c-1.6,0.4-2.6,0.7-3.2,1c-0.6,0.3-1.1,0.7-1.4,1.2c-0.3,0.5-0.5,1.1-0.5,1.7c0,0.6,0.1,1.1,0.4,1.5c0.3,0.5,0.6,0.9,1,1.2
			c0.3,0.2,0.8,0.4,1.3,0.6c0.6,0.2,1.2,0.3,1.8,0.3c1,0,1.8-0.1,2.6-0.4c0.7-0.3,1.3-0.7,1.6-1.1c0.4-0.5,0.6-1.1,0.7-1.9l-2.1-0.3
			c-0.1,0.6-0.4,1.1-0.8,1.5c-0.5,0.4-1.1,0.5-1.9,0.5c-1,0-1.7-0.2-2.1-0.5c-0.4-0.3-0.6-0.7-0.6-1.1c0-0.3,0.1-0.5,0.3-0.7
			c0.2-0.2,0.4-0.4,0.8-0.6c0.2-0.1,0.8-0.3,1.9-0.5c1.5-0.4,2.5-0.7,3.1-1c0.6-0.3,1.1-0.6,1.4-1.1c0.3-0.5,0.5-1.1,0.5-1.8
			c0-0.7-0.2-1.4-0.6-2c-0.4-0.6-1-1.1-1.8-1.4c-0.8-0.3-1.7-0.5-2.6-0.5c-1.6,0-2.9,0.3-3.7,1C-93.8-26.1-94.4-25.1-94.6-23.8"/>
		<path id="path1097" inkscape:connector-curvature="0" class="st0" d="M-81.7-15.1h2.1v-12.5h-2.1V-15.1z M-81.7-10.3h2.1v-2.4
			h-2.1V-10.3z"/>
		<path id="path1099" inkscape:connector-curvature="0" class="st0" d="M-75-21.1c0-1.6,0.3-2.8,1-3.6c0.7-0.8,1.5-1.1,2.4-1.1
			c1,0,1.8,0.4,2.4,1.1c0.7,0.7,1,1.9,1,3.5c0,1.5-0.3,2.7-1,3.5c-0.7,0.8-1.5,1.2-2.4,1.2c-0.9,0-1.7-0.4-2.4-1.1S-75-19.6-75-21.1
			 M-76.8-28.6l2.1-0.3c0.1-0.6,0.3-1.1,0.7-1.4c0.5-0.4,1.2-0.6,2.1-0.6c1,0,1.7,0.2,2.3,0.6c0.5,0.4,0.9,0.9,1.1,1.6
			c0.1,0.4,0.2,1.3,0.2,2.7c-0.9-1.1-2.1-1.6-3.5-1.6c-1.7,0-3,0.6-4,1.9c-0.9,1.2-1.4,2.7-1.4,4.5c0,1.2,0.2,2.3,0.6,3.3
			c0.4,1,1.1,1.8,1.9,2.3c0.8,0.5,1.8,0.8,2.9,0.8c1.5,0,2.7-0.6,3.6-1.8v1.5h2v-10.8c0-1.9-0.2-3.3-0.6-4.1c-0.4-0.8-1-1.5-1.9-1.9
			c-0.9-0.5-1.9-0.7-3.2-0.7c-1.5,0-2.7,0.3-3.6,1C-76.4-30.9-76.8-29.9-76.8-28.6"/>
		<path id="path1101" inkscape:connector-curvature="0" class="st0" d="M-63-27.6v12.5h1.9v-1.8c0.9,1.4,2.2,2.1,4,2.1
			c0.8,0,1.4-0.1,2.1-0.4c0.6-0.3,1.1-0.6,1.4-1.1c0.3-0.4,0.5-1,0.7-1.6c0.1-0.4,0.1-1.1,0.1-2.1v-7.7H-55v7.6
			c0,0.9-0.1,1.5-0.2,1.9c-0.2,0.4-0.5,0.8-0.9,1c-0.4,0.3-0.9,0.4-1.5,0.4c-0.9,0-1.7-0.3-2.3-0.9c-0.7-0.6-1-1.7-1-3.3v-6.8H-63z"
			/>
		<path id="path1103" inkscape:connector-curvature="0" class="st0" d="M-48-20.1h7c-0.1,1.1-0.4,1.8-0.8,2.4
			c-0.7,0.8-1.5,1.2-2.6,1.2c-1,0-1.8-0.3-2.4-1C-47.6-18.2-48-19-48-20.1 M-41.1-23.5l2.2-0.3c-0.3-1.3-1-2.3-1.9-3
			c-0.9-0.7-2.1-1.1-3.6-1.1c-1.8,0-3.3,0.6-4.3,1.7c-1.1,1.1-1.6,2.7-1.6,4.7c0,2.1,0.5,3.7,1.6,4.9s2.5,1.7,4.2,1.7
			c1.7,0,3-0.6,4.1-1.7s1.6-2.7,1.6-4.8c0-0.1,0-0.3,0-0.6h-9.3c0.1-1.4,0.5-2.4,1.2-3.2c0.7-0.7,1.6-1.1,2.6-1.1
			c0.8,0,1.4,0.2,2,0.6C-41.9-25.1-41.4-24.4-41.1-23.5"/>
		<path id="path1105" inkscape:connector-curvature="0" class="st0" d="M-34.9-21.3c0-1.6,0.3-2.8,1-3.6c0.7-0.8,1.5-1.2,2.4-1.2
			c0.9,0,1.7,0.4,2.4,1.1s1,1.9,1,3.5c0,1.7-0.3,3-1,3.8c-0.7,0.8-1.5,1.2-2.4,1.2c-0.9,0-1.7-0.4-2.4-1.2
			C-34.5-18.5-34.9-19.7-34.9-21.3 M-28.2-27.6v1.6c-0.8-1.2-2-1.9-3.5-1.9c-1,0-1.9,0.3-2.7,0.8c-0.8,0.5-1.5,1.3-1.9,2.3
			c-0.5,1-0.7,2.1-0.7,3.4c0,1.2,0.2,2.4,0.6,3.4c0.4,1,1,1.8,1.9,2.3c0.8,0.5,1.8,0.8,2.8,0.8c0.8,0,1.4-0.2,2-0.5
			c0.6-0.3,1.1-0.7,1.4-1.2v6.2h2.1v-17.2H-28.2z"/>
		<path id="path1107" inkscape:connector-curvature="0" class="st0" d="M-8.2-21.3c-0.8-0.3-1.9-0.6-3.5-0.8
			c-0.9-0.1-1.5-0.3-1.8-0.4s-0.6-0.4-0.8-0.7c-0.2-0.3-0.3-0.6-0.3-1c0-0.6,0.2-1,0.6-1.4c0.4-0.4,1-0.6,1.9-0.6
			c0.8,0,1.5,0.2,2.2,0.5s1.1,0.8,1.4,1.5c0.2,0.5,0.3,1.2,0.3,2.1L-8.2-21.3z M-8.1-26c-0.8-0.7-1.5-1.1-2.3-1.4
			c-0.7-0.3-1.5-0.4-2.3-0.4c-1.4,0-2.4,0.3-3.2,1c-0.7,0.7-1.1,1.5-1.1,2.6c0,0.6,0.1,1.2,0.4,1.7c0.3,0.5,0.6,0.9,1.1,1.2
			c0.4,0.3,1,0.5,1.5,0.7c0.4,0.1,1,0.2,1.9,0.3c1.7,0.2,3,0.4,3.8,0.7c0,0.3,0,0.5,0,0.6c0,0.9-0.2,1.5-0.6,1.8
			c-0.5,0.5-1.3,0.7-2.4,0.7c-1,0-1.7-0.2-2.2-0.5c-0.5-0.3-0.8-1-1.1-1.9l-2.1,0.3c0.2,0.9,0.5,1.6,0.9,2.1c0.4,0.5,1.1,1,1.9,1.3
			c0.8,0.3,1.8,0.4,2.8,0.4c1.1,0,1.9-0.1,2.6-0.4c0.7-0.3,1.2-0.6,1.5-0.9c0.3-0.4,0.5-0.9,0.7-1.4c0.1-0.4,0.1-1,0.1-2v-2.8
			c0-2,0-3.2,0.1-3.7c0.1-0.5,0.3-1,0.5-1.5h-2.2C-7.8-27.1-8-26.6-8.1-26"/>
		<path id="path1109" inkscape:connector-curvature="0" class="st0" d="M-2.8-27.6v12.5h1.9v-1.8c0.9,1.4,2.2,2.1,4,2.1
			c0.8,0,1.4-0.1,2.1-0.4c0.6-0.3,1.1-0.6,1.4-1.1c0.3-0.4,0.5-1,0.7-1.6c0.1-0.4,0.1-1.1,0.1-2.1v-7.7H5.2v7.6
			c0,0.9-0.1,1.5-0.2,1.9c-0.2,0.4-0.5,0.8-0.9,1c-0.4,0.3-0.9,0.4-1.5,0.4c-0.9,0-1.7-0.3-2.3-0.9c-0.7-0.6-1-1.7-1-3.3v-6.8H-2.8z
			"/>
		<path id="path1111" inkscape:connector-curvature="0" class="st0" d="M12-21.3c0-1.6,0.3-2.8,1-3.6c0.7-0.8,1.5-1.2,2.4-1.2
			c0.9,0,1.7,0.4,2.4,1.1c0.6,0.8,1,1.9,1,3.5c0,1.7-0.3,3-1,3.8c-0.7,0.8-1.5,1.2-2.4,1.2c-0.9,0-1.7-0.4-2.4-1.2
			C12.3-18.5,12-19.7,12-21.3 M18.7-27.6v1.6c-0.8-1.2-2-1.9-3.5-1.9c-1,0-1.9,0.3-2.7,0.8c-0.8,0.5-1.5,1.3-1.9,2.3
			c-0.5,1-0.7,2.1-0.7,3.4c0,1.2,0.2,2.4,0.6,3.4c0.4,1,1,1.8,1.9,2.3c0.8,0.5,1.8,0.8,2.8,0.8c0.8,0,1.4-0.2,2-0.5
			c0.6-0.3,1.1-0.7,1.4-1.2v6.2h2.1v-17.2H18.7z"/>
		<path id="path1113" inkscape:connector-curvature="0" class="st0" d="M30.6-27.6v12.5h1.9V-17c0.5,0.9,0.9,1.5,1.3,1.8
			c0.4,0.3,0.9,0.4,1.4,0.4c0.7,0,1.4-0.2,2.2-0.7l-0.7-2c-0.5,0.3-1,0.5-1.5,0.5c-0.5,0-0.9-0.1-1.2-0.4c-0.4-0.3-0.6-0.7-0.8-1.2
			c-0.2-0.8-0.4-1.6-0.4-2.5v-6.5H30.6z"/>
		<path id="path1115" inkscape:connector-curvature="0" class="st0" d="M40.2-20.1h7c-0.1,1.1-0.4,1.8-0.8,2.4
			c-0.7,0.8-1.5,1.2-2.6,1.2c-1,0-1.8-0.3-2.5-1C40.7-18.2,40.3-19,40.2-20.1 M47.2-23.5l2.2-0.3c-0.3-1.3-1-2.3-1.9-3
			c-0.9-0.7-2.1-1.1-3.6-1.1c-1.8,0-3.3,0.6-4.3,1.7c-1.1,1.1-1.6,2.7-1.6,4.7c0,2.1,0.5,3.7,1.6,4.9c1.1,1.2,2.5,1.7,4.2,1.7
			c1.7,0,3-0.6,4.1-1.7s1.6-2.7,1.6-4.8c0-0.1,0-0.3,0-0.6h-9.3c0.1-1.4,0.5-2.4,1.2-3.2c0.7-0.7,1.6-1.1,2.6-1.1
			c0.8,0,1.4,0.2,2,0.6C46.4-25.1,46.9-24.4,47.2-23.5"/>
		<path id="path1117" inkscape:connector-curvature="0" class="st0" d="M52-10.3h2.1v-17.2H52V-10.3z"/>
		<path id="path1119" inkscape:connector-curvature="0" class="st0" d="M59-20.1h7c-0.1,1.1-0.4,1.8-0.8,2.4
			c-0.7,0.8-1.5,1.2-2.6,1.2c-1,0-1.8-0.3-2.5-1C59.4-18.2,59-19,59-20.1 M65.9-23.5l2.2-0.3c-0.3-1.3-1-2.3-1.9-3
			c-0.9-0.7-2.1-1.1-3.6-1.1c-1.8,0-3.3,0.6-4.3,1.7c-1.1,1.1-1.6,2.7-1.6,4.7c0,2.1,0.5,3.7,1.6,4.9c1.1,1.2,2.5,1.7,4.2,1.7
			c1.7,0,3-0.6,4.1-1.7c1.1-1.1,1.6-2.7,1.6-4.8c0-0.1,0-0.3,0-0.6h-9.3c0.1-1.4,0.5-2.4,1.2-3.2c0.7-0.7,1.6-1.1,2.6-1.1
			c0.8,0,1.4,0.2,2,0.6C65.2-25.1,65.6-24.4,65.9-23.5"/>
		<path id="path1121" inkscape:connector-curvature="0" class="st0" d="M78.7-21.3c-0.8-0.3-1.9-0.6-3.5-0.8
			c-0.9-0.1-1.5-0.3-1.8-0.4c-0.4-0.2-0.6-0.4-0.8-0.7c-0.2-0.3-0.3-0.6-0.3-1c0-0.6,0.2-1,0.6-1.4c0.4-0.4,1-0.6,1.9-0.6
			c0.8,0,1.5,0.2,2.2,0.5c0.6,0.4,1.1,0.8,1.4,1.5c0.2,0.5,0.3,1.2,0.3,2.1L78.7-21.3z M78.9-26c-0.8-0.7-1.5-1.1-2.3-1.4
			c-0.7-0.3-1.5-0.4-2.3-0.4c-1.4,0-2.4,0.3-3.2,1c-0.7,0.7-1.1,1.5-1.1,2.6c0,0.6,0.1,1.2,0.4,1.7c0.3,0.5,0.6,0.9,1.1,1.2
			c0.4,0.3,1,0.5,1.5,0.7c0.4,0.1,1,0.2,1.9,0.3c1.7,0.2,3,0.4,3.8,0.7c0,0.3,0,0.5,0,0.6c0,0.9-0.2,1.5-0.6,1.8
			c-0.5,0.5-1.3,0.7-2.4,0.7c-1,0-1.7-0.2-2.2-0.5c-0.5-0.3-0.8-1-1-1.9l-2.1,0.3c0.2,0.9,0.5,1.6,0.9,2.1c0.4,0.5,1.1,1,1.9,1.3
			c0.8,0.3,1.8,0.4,2.8,0.4c1.1,0,1.9-0.1,2.6-0.4c0.7-0.3,1.2-0.6,1.5-0.9c0.3-0.4,0.5-0.9,0.7-1.4c0.1-0.4,0.1-1,0.1-2v-2.8
			c0-2,0-3.2,0.1-3.7c0.1-0.5,0.3-1,0.5-1.5h-2.2C79.1-27.1,79-26.6,78.9-26"/>
		<path id="path1123" inkscape:connector-curvature="0" class="st0" d="M83.3-23.8l2.1,0.3c0.1-0.8,0.4-1.5,1-1.9
			c0.5-0.4,1.3-0.7,2.3-0.7c1,0,1.7,0.2,2.2,0.6c0.5,0.4,0.7,0.9,0.7,1.4c0,0.5-0.2,0.9-0.6,1.1c-0.3,0.2-1,0.4-2.2,0.7
			c-1.6,0.4-2.6,0.7-3.2,1c-0.6,0.3-1.1,0.7-1.4,1.2c-0.3,0.5-0.5,1.1-0.5,1.7c0,0.6,0.1,1.1,0.4,1.5c0.3,0.5,0.6,0.9,1,1.2
			c0.3,0.2,0.8,0.4,1.3,0.6c0.6,0.2,1.2,0.3,1.8,0.3c1,0,1.8-0.1,2.6-0.4c0.7-0.3,1.3-0.7,1.6-1.1c0.4-0.5,0.6-1.1,0.7-1.9l-2.1-0.3
			c-0.1,0.6-0.4,1.1-0.8,1.5c-0.5,0.4-1.1,0.5-1.9,0.5c-1,0-1.7-0.2-2.1-0.5c-0.4-0.3-0.6-0.7-0.6-1.1c0-0.3,0.1-0.5,0.3-0.7
			c0.2-0.2,0.4-0.4,0.8-0.6c0.2-0.1,0.8-0.3,1.9-0.5c1.5-0.4,2.5-0.7,3.1-1c0.6-0.3,1.1-0.6,1.4-1.1c0.3-0.5,0.5-1.1,0.5-1.8
			c0-0.7-0.2-1.4-0.6-2c-0.4-0.6-1-1.1-1.8-1.4c-0.8-0.3-1.7-0.5-2.6-0.5c-1.6,0-2.9,0.3-3.7,1C84.1-26.1,83.5-25.1,83.3-23.8"/>
		<path id="path1125" inkscape:connector-curvature="0" class="st0" d="M97.8-20.1h7c-0.1,1.1-0.4,1.8-0.8,2.4
			c-0.7,0.8-1.5,1.2-2.6,1.2c-1,0-1.8-0.3-2.5-1C98.2-18.2,97.8-19,97.8-20.1 M104.7-23.5l2.2-0.3c-0.3-1.3-1-2.3-1.9-3
			c-0.9-0.7-2.1-1.1-3.6-1.1c-1.8,0-3.3,0.6-4.3,1.7c-1.1,1.1-1.6,2.7-1.6,4.7c0,2.1,0.5,3.7,1.6,4.9c1.1,1.2,2.5,1.7,4.2,1.7
			c1.7,0,3-0.6,4.1-1.7s1.6-2.7,1.6-4.8c0-0.1,0-0.3,0-0.6h-9.3c0.1-1.4,0.5-2.4,1.2-3.2c0.7-0.7,1.6-1.1,2.6-1.1
			c0.8,0,1.4,0.2,2,0.6C103.9-25.1,104.4-24.4,104.7-23.5"/>
		<path id="path1127" inkscape:connector-curvature="0" class="st0" d="M110.9-21.3c0-1.6,0.3-2.8,1-3.6c0.7-0.8,1.5-1.2,2.4-1.2
			c0.9,0,1.7,0.4,2.4,1.1s1,1.9,1,3.5c0,1.7-0.3,3-1,3.8c-0.7,0.8-1.5,1.2-2.4,1.2c-0.9,0-1.7-0.4-2.4-1.2
			C111.3-18.5,110.9-19.7,110.9-21.3 M117.6-27.6v1.6c-0.8-1.2-2-1.9-3.5-1.9c-1,0-1.9,0.3-2.7,0.8c-0.8,0.5-1.5,1.3-1.9,2.3
			c-0.5,1-0.7,2.1-0.7,3.4c0,1.2,0.2,2.4,0.6,3.4c0.4,1,1,1.8,1.9,2.3c0.8,0.5,1.8,0.8,2.8,0.8c0.8,0,1.4-0.2,2-0.5
			c0.6-0.3,1.1-0.7,1.4-1.2v6.2h2.1v-17.2H117.6z"/>
		<path id="path1129" inkscape:connector-curvature="0" class="st0" d="M129.6-15.1h2.1v-12.5h-2.1V-15.1z M129.6-10.3h2.1v-2.4
			h-2.1V-10.3z"/>
		<path id="path1131" inkscape:connector-curvature="0" class="st0" d="M135-27.6v12.5h1.9v-1.8c0.9,1.4,2.2,2.1,4,2.1
			c0.8,0,1.4-0.1,2.1-0.4c0.6-0.3,1.1-0.6,1.4-1.1c0.3-0.4,0.5-1,0.7-1.6c0.1-0.4,0.1-1.1,0.1-2.1v-7.7H143v7.6
			c0,0.9-0.1,1.5-0.2,1.9c-0.2,0.4-0.5,0.8-0.9,1c-0.4,0.3-0.9,0.4-1.5,0.4c-0.9,0-1.7-0.3-2.3-0.9c-0.7-0.6-1-1.7-1-3.3v-6.8H135z"
			/>
		<path id="path1133" inkscape:connector-curvature="0" class="st0" d="M156.9-21.4c0-1.6,0.3-2.8,1-3.6c0.6-0.8,1.4-1.2,2.4-1.2
			c0.9,0,1.7,0.4,2.4,1.2c0.7,0.8,1,2,1,3.7c0,1.6-0.3,2.8-1,3.6c-0.7,0.8-1.4,1.2-2.3,1.2c-0.9,0-1.7-0.4-2.4-1.3
			C157.3-18.6,156.9-19.8,156.9-21.4 M155-32.3v17.3h1.9v-1.6c0.5,0.6,1,1.1,1.5,1.4c0.6,0.3,1.3,0.5,2.1,0.5c1.1,0,2-0.3,2.8-0.8
			c0.8-0.5,1.4-1.3,1.8-2.3s0.6-2.1,0.6-3.3c0-1.3-0.2-2.4-0.7-3.4c-0.5-1-1.1-1.8-2-2.4c-0.9-0.5-1.8-0.8-2.8-0.8
			c-0.7,0-1.3,0.1-1.9,0.4c-0.6,0.3-1,0.7-1.4,1.1v-6.1L155-32.3z"/>
		<path id="path1135" inkscape:connector-curvature="0" class="st0" d="M176.6-27.6v1.8c-1-1.4-2.3-2.1-3.9-2.1
			c-0.7,0-1.4,0.1-2.1,0.4c-0.6,0.3-1.1,0.6-1.4,1.1c-0.3,0.4-0.5,1-0.6,1.6c-0.1,0.4-0.1,1.1-0.1,2v7.7h2.1V-22
			c0-1.1,0-1.8,0.1-2.2c0.1-0.6,0.4-1,0.8-1.3c0.4-0.3,1-0.5,1.6-0.5c0.6,0,1.2,0.2,1.8,0.5c0.6,0.3,0.9,0.8,1.2,1.3
			c0.2,0.6,0.3,1.4,0.3,2.4v6.7h2.1v-12.5L176.6-27.6z"/>
		<path id="path1137" inkscape:connector-curvature="0" class="st0" d="M183.7-21.2c0-1.5,0.2-2.6,0.6-3.2c0.7-1.1,1.6-1.6,2.7-1.6
			c0.9,0,1.7,0.4,2.4,1.2c0.7,0.8,1,2,1,3.6c0,1.6-0.3,2.8-1,3.6c-0.6,0.8-1.4,1.2-2.3,1.2c-0.9,0-1.7-0.4-2.4-1.2
			C184-18.5,183.7-19.7,183.7-21.2 M183.7-27.6h-2v17.2h2.1v-6.1c0.9,1.1,2,1.7,3.4,1.7c0.8,0,1.5-0.2,2.2-0.5
			c0.7-0.3,1.3-0.7,1.7-1.3c0.4-0.6,0.8-1.2,1-2c0.3-0.8,0.4-1.6,0.4-2.5c0-2.1-0.5-3.8-1.6-5c-1.1-1.2-2.3-1.8-3.8-1.8
			c-1.5,0-2.6,0.6-3.5,1.8L183.7-27.6z"/>
		<path id="path1139" inkscape:connector-curvature="0" class="st0" d="M195.1-10.3h2.1v-17.2h-2.1V-10.3z"/>
		<path id="path1141" inkscape:connector-curvature="0" class="st0" d="M200.5-15.1h2.1v-12.5h-2.1V-15.1z M200.5-10.3h2.1v-2.4
			h-2.1V-10.3z"/>
		<path id="path1143" inkscape:connector-curvature="0" class="st0" d="M214-23l2.1-0.3c-0.2-1.4-0.8-2.6-1.7-3.4
			c-0.9-0.8-2.1-1.2-3.5-1.2c-1.7,0-3.1,0.6-4.1,1.7s-1.6,2.7-1.6,4.8c0,1.3,0.2,2.5,0.7,3.5c0.4,1,1.1,1.8,2,2.3
			c0.9,0.5,1.9,0.8,3,0.8c1.4,0,2.5-0.3,3.3-1c0.9-0.7,1.4-1.7,1.7-2.9l-2.1-0.3c-0.2,0.8-0.5,1.5-1,1.9c-0.5,0.4-1.1,0.6-1.8,0.6
			c-1.1,0-1.9-0.4-2.6-1.1c-0.7-0.8-1-2-1-3.6c0-1.7,0.3-2.9,1-3.7c0.6-0.8,1.5-1.1,2.5-1.1c0.8,0,1.5,0.3,2.1,0.8S213.9-24,214-23"
			/>
		<path id="path1145" inkscape:connector-curvature="0" class="st0" d="M226-21.3c0-1.6,0.3-2.8,1-3.6c0.7-0.8,1.5-1.2,2.4-1.2
			c0.9,0,1.7,0.4,2.4,1.1s1,1.9,1,3.5c0,1.7-0.3,3-1,3.8c-0.7,0.8-1.5,1.2-2.4,1.2c-0.9,0-1.7-0.4-2.4-1.2
			C226.3-18.5,226-19.7,226-21.3 M232.7-27.6v1.6c-0.8-1.2-2-1.9-3.5-1.9c-1,0-1.9,0.3-2.7,0.8c-0.8,0.5-1.5,1.3-1.9,2.3
			c-0.5,1-0.7,2.1-0.7,3.4c0,1.2,0.2,2.4,0.6,3.4c0.4,1,1,1.8,1.9,2.3c0.8,0.5,1.8,0.8,2.8,0.8c0.8,0,1.4-0.2,2-0.5
			c0.6-0.3,1.1-0.7,1.4-1.2v6.2h2.1v-17.2H232.7z"/>
		<path id="path1147" inkscape:connector-curvature="0" class="st0" d="M239.3-21.3c0-1.6,0.3-2.8,1-3.6c0.7-0.8,1.6-1.2,2.6-1.2
			c1,0,1.9,0.4,2.6,1.2c0.7,0.8,1,2,1,3.7c0,1.5-0.4,2.7-1.1,3.5c-0.7,0.8-1.6,1.2-2.6,1.2c-1.1,0-1.9-0.4-2.6-1.2
			C239.7-18.5,239.3-19.7,239.3-21.3 M237.2-21.3c0,2.3,0.6,4,1.9,5.1c1.1,0.9,2.4,1.4,3.9,1.4c1.7,0,3.1-0.6,4.2-1.7
			c1.1-1.1,1.6-2.7,1.6-4.7c0-1.6-0.2-2.9-0.7-3.8c-0.5-0.9-1.2-1.6-2.1-2.1c-0.9-0.5-1.9-0.8-3-0.8c-1.7,0-3.2,0.6-4.2,1.7
			C237.7-25,237.2-23.4,237.2-21.3"/>
		<path id="path1149" inkscape:connector-curvature="0" class="st0" d="M251.3-27.6v12.5h1.9v-1.7c0.4,0.6,0.9,1.1,1.6,1.5
			c0.6,0.4,1.4,0.6,2.2,0.6c0.9,0,1.7-0.2,2.3-0.6c0.6-0.4,1-0.9,1.2-1.6c1,1.5,2.3,2.2,3.9,2.2c1.2,0,2.2-0.3,2.9-1
			c0.7-0.7,1-1.7,1-3.2v-8.6h-2.1v7.9c0,0.8-0.1,1.5-0.2,1.8c-0.1,0.4-0.4,0.7-0.7,0.9c-0.4,0.2-0.8,0.3-1.3,0.3
			c-0.9,0-1.6-0.3-2.2-0.9c-0.6-0.6-0.9-1.5-0.9-2.8v-7.3h-2.1v8.1c0,0.9-0.2,1.6-0.5,2.1c-0.3,0.5-0.9,0.7-1.7,0.7
			c-0.6,0-1.1-0.2-1.7-0.5c-0.5-0.3-0.9-0.8-1.1-1.4c-0.2-0.6-0.3-1.5-0.3-2.6v-6.5L251.3-27.6z"/>
		<path id="path1151" inkscape:connector-curvature="0" class="st0" d="M279.3-21.3c-0.8-0.3-1.9-0.6-3.5-0.8
			c-0.9-0.1-1.5-0.3-1.8-0.4c-0.4-0.2-0.6-0.4-0.8-0.7c-0.2-0.3-0.3-0.6-0.3-1c0-0.6,0.2-1,0.6-1.4c0.4-0.4,1-0.6,1.9-0.6
			c0.8,0,1.5,0.2,2.2,0.5c0.6,0.4,1.1,0.8,1.4,1.5c0.2,0.5,0.3,1.2,0.3,2.1L279.3-21.3z M279.5-26c-0.8-0.7-1.5-1.1-2.3-1.4
			c-0.7-0.3-1.5-0.4-2.3-0.4c-1.4,0-2.4,0.3-3.2,1c-0.7,0.7-1.1,1.5-1.1,2.6c0,0.6,0.1,1.2,0.4,1.7c0.3,0.5,0.6,0.9,1.1,1.2
			c0.5,0.3,1,0.5,1.5,0.7c0.4,0.1,1,0.2,1.9,0.3c1.7,0.2,3,0.4,3.8,0.7c0,0.3,0,0.5,0,0.6c0,0.9-0.2,1.5-0.6,1.8
			c-0.5,0.5-1.3,0.7-2.4,0.7c-1,0-1.7-0.2-2.2-0.5c-0.5-0.3-0.8-1-1-1.9l-2.1,0.3c0.2,0.9,0.5,1.6,0.9,2.1c0.4,0.5,1.1,1,1.9,1.3
			c0.8,0.3,1.8,0.4,2.8,0.4c1.1,0,1.9-0.1,2.6-0.4c0.7-0.3,1.2-0.6,1.5-0.9c0.3-0.4,0.5-0.9,0.7-1.4c0.1-0.4,0.1-1,0.1-2v-2.8
			c0-2,0-3.2,0.1-3.7c0.1-0.5,0.3-1,0.5-1.5h-2.2C279.7-27.1,279.6-26.6,279.5-26"/>
		<path id="path1153" inkscape:connector-curvature="0" class="st0" d="M284.8-15.1h2.1v-12.5h-2.1V-15.1z M284.8-10.3h2.1v-2.4
			h-2.1V-10.3z"/>
		<path id="path1155" inkscape:connector-curvature="0" class="st0" d="M290.1-27.6v12.5h1.9v-1.8c0.9,1.4,2.2,2.1,4,2.1
			c0.8,0,1.4-0.1,2.1-0.4c0.6-0.3,1.1-0.6,1.4-1.1c0.3-0.4,0.5-1,0.7-1.6c0.1-0.4,0.1-1.1,0.1-2.1v-7.7h-2.1v7.6
			c0,0.9-0.1,1.5-0.2,1.9s-0.5,0.8-0.9,1c-0.4,0.3-0.9,0.4-1.5,0.4c-0.9,0-1.7-0.3-2.3-0.9c-0.7-0.6-1-1.7-1-3.3v-6.8H290.1z"/>
		<path id="path1157" inkscape:connector-curvature="0" class="st0" d="M312.1-21.2c0-1.5,0.2-2.6,0.6-3.2c0.7-1.1,1.6-1.6,2.7-1.6
			c0.9,0,1.7,0.4,2.4,1.2c0.7,0.8,1,2,1,3.6c0,1.6-0.3,2.8-1,3.6c-0.6,0.8-1.4,1.2-2.3,1.2c-0.9,0-1.7-0.4-2.4-1.2
			C312.4-18.5,312.1-19.7,312.1-21.2 M312.1-27.6h-2v17.2h2.1v-6.1c0.9,1.1,2,1.7,3.4,1.7c0.8,0,1.5-0.2,2.2-0.5
			c0.7-0.3,1.3-0.7,1.7-1.3c0.4-0.6,0.8-1.2,1-2c0.3-0.8,0.4-1.6,0.4-2.5c0-2.1-0.5-3.8-1.6-5c-1.1-1.2-2.3-1.8-3.8-1.8
			c-1.5,0-2.6,0.6-3.5,1.8L312.1-27.6z"/>
		<path id="path1159" inkscape:connector-curvature="0" class="st0" d="M323.5-32.4l-0.2,2c0.5-0.1,0.9-0.2,1.2-0.2
			c0.5,0,0.8,0.1,1.1,0.2c0.3,0.2,0.5,0.4,0.7,0.7c0.1,0.2,0.3,0.7,0.6,1.6c0,0.1,0.1,0.3,0.2,0.5l-4.8,12.5h2.3l2.6-7.2
			c0.3-0.9,0.6-1.9,0.9-2.9c0.2,0.9,0.5,1.9,0.9,2.8l2.7,7.3h2.1L329-27.8c-0.5-1.4-0.9-2.3-1.2-2.8c-0.4-0.7-0.8-1.2-1.3-1.5
			c-0.5-0.3-1.1-0.5-1.7-0.5C324.4-32.6,324-32.5,323.5-32.4"/>
		<path id="path1161" inkscape:connector-curvature="0" class="st0" d="M342.6-27.6v17.2h11.6v-2h-9.3v-5.3h8.1v-2h-8.1v-7.8
			L342.6-27.6z"/>
		<path id="path1163" inkscape:connector-curvature="0" class="st0" d="M356.9-27.6v12.5h1.9V-17c0.5,0.9,0.9,1.5,1.3,1.8
			c0.4,0.3,0.9,0.4,1.4,0.4c0.7,0,1.4-0.2,2.2-0.7l-0.7-2c-0.5,0.3-1,0.5-1.5,0.5c-0.5,0-0.9-0.1-1.2-0.4c-0.4-0.3-0.6-0.7-0.8-1.2
			c-0.2-0.8-0.4-1.6-0.4-2.5v-6.5H356.9z"/>
		<path id="path1165" inkscape:connector-curvature="0" class="st0" d="M366.5-20.1h7c-0.1,1.1-0.4,1.8-0.8,2.4
			c-0.7,0.8-1.5,1.2-2.6,1.2c-1,0-1.8-0.3-2.5-1C367-18.2,366.6-19,366.5-20.1 M373.5-23.5l2.2-0.3c-0.3-1.3-1-2.3-1.9-3
			s-2.1-1.1-3.6-1.1c-1.8,0-3.3,0.6-4.3,1.7c-1.1,1.1-1.6,2.7-1.6,4.7c0,2.1,0.5,3.7,1.6,4.9s2.5,1.7,4.2,1.7c1.7,0,3-0.6,4.1-1.7
			c1.1-1.1,1.6-2.7,1.6-4.8c0-0.1,0-0.3,0-0.6h-9.3c0.1-1.4,0.5-2.4,1.2-3.2c0.7-0.7,1.6-1.1,2.6-1.1c0.8,0,1.4,0.2,2,0.6
			C372.7-25.1,373.2-24.4,373.5-23.5"/>
		<path id="path1167" inkscape:connector-curvature="0" class="st0" d="M379.9-20.1h7c-0.1,1.1-0.4,1.8-0.8,2.4
			c-0.7,0.8-1.5,1.2-2.6,1.2c-1,0-1.8-0.3-2.5-1C380.4-18.2,380-19,379.9-20.1 M386.9-23.5l2.2-0.3c-0.3-1.3-1-2.3-1.9-3
			s-2.1-1.1-3.6-1.1c-1.8,0-3.3,0.6-4.3,1.7c-1.1,1.1-1.6,2.7-1.6,4.7c0,2.1,0.5,3.7,1.6,4.9s2.5,1.7,4.2,1.7c1.7,0,3-0.6,4.1-1.7
			c1.1-1.1,1.6-2.7,1.6-4.8c0-0.1,0-0.3,0-0.6h-9.3c0.1-1.4,0.5-2.4,1.2-3.2c0.7-0.7,1.6-1.1,2.6-1.1c0.8,0,1.4,0.2,2,0.6
			C386.1-25.1,386.6-24.4,386.9-23.5"/>
		<path id="path1169" inkscape:connector-curvature="0" class="st0" d="M391.2-22l2.2,0.2c0.1-0.9,0.3-1.6,0.7-2.1s0.9-1,1.7-1.3
			c0.8-0.3,1.7-0.5,2.6-0.5c0.9,0,1.6,0.1,2.3,0.4c0.7,0.3,1.2,0.6,1.5,1.1c0.3,0.5,0.5,0.9,0.5,1.5c0,0.5-0.2,1-0.5,1.4
			c-0.3,0.4-0.8,0.7-1.5,1c-0.5,0.2-1.5,0.5-3.1,0.8c-1.6,0.4-2.7,0.7-3.3,1.1c-0.8,0.4-1.4,1-1.8,1.6c-0.4,0.6-0.6,1.4-0.6,2.1
			c0,0.9,0.2,1.7,0.7,2.4c0.5,0.8,1.2,1.3,2.2,1.7c0.9,0.4,2,0.6,3.2,0.6c1.3,0,2.4-0.2,3.4-0.6c1-0.4,1.7-1,2.3-1.8
			c0.5-0.8,0.8-1.7,0.8-2.7l-2.2-0.2c-0.1,1.1-0.5,1.9-1.2,2.5c-0.7,0.6-1.7,0.8-3,0.8c-1.4,0-2.4-0.3-3-0.8
			c-0.6-0.5-0.9-1.1-0.9-1.8c0-0.6,0.2-1.1,0.7-1.5c0.4-0.4,1.6-0.8,3.4-1.2c1.9-0.4,3.1-0.8,3.8-1.1c1-0.5,1.7-1,2.2-1.8
			s0.7-1.5,0.7-2.4c0-0.9-0.3-1.8-0.8-2.6c-0.5-0.8-1.3-1.4-2.3-1.9c-1-0.5-2.1-0.7-3.3-0.7c-1.6,0-2.9,0.2-3.9,0.7
			c-1.1,0.5-1.9,1.1-2.5,2.1C391.6-24.2,391.3-23.2,391.2-22"/>
		<path id="path1171" inkscape:connector-curvature="0" class="st0" d="M413-27.6l-6.7,17.2h2.5l4.5-12.5c0.4-1,0.7-1.9,0.9-2.8
			c0.3,0.9,0.6,1.9,0.9,2.8l4.7,12.5h2.3l-6.7-17.2L413-27.6z"/>
		<path id="path1173" inkscape:connector-curvature="0" class="st0" d="M432.2-20.8v2h7.3v-6.4c-1.1-0.9-2.3-1.6-3.5-2
			c-1.2-0.5-2.4-0.7-3.7-0.7c-1.7,0-3.2,0.4-4.6,1.1c-1.4,0.7-2.4,1.8-3.1,3.1s-1.1,2.9-1.1,4.6c0,1.7,0.4,3.2,1.1,4.7
			c0.7,1.5,1.7,2.5,3,3.2c1.3,0.7,2.8,1.1,4.5,1.1c1.2,0,2.4-0.2,3.4-0.6s1.8-1,2.4-1.7c0.6-0.7,1-1.7,1.3-2.8l-2.1-0.6
			c-0.3,0.9-0.6,1.6-1,2.1c-0.4,0.5-0.9,0.9-1.6,1.2c-0.7,0.3-1.5,0.5-2.4,0.5c-1,0-1.9-0.2-2.7-0.5c-0.8-0.3-1.4-0.7-1.8-1.3
			c-0.5-0.5-0.8-1.1-1.1-1.7c-0.4-1.1-0.7-2.2-0.7-3.5c0-1.5,0.3-2.8,0.8-3.9c0.5-1,1.3-1.8,2.3-2.3c1-0.5,2.1-0.8,3.2-0.8
			c1,0,2,0.2,2.9,0.6c0.9,0.4,1.7,0.8,2.1,1.2v3.2L432.2-20.8z"/>
		<path id="path1175" inkscape:connector-curvature="0" class="st0" d="M443.1-25.1h2.4v-2.4h-2.4V-25.1z"/>
		<path id="path1177" inkscape:connector-curvature="0" class="st0" d="M450.6-21.3c0-1.6,0.3-2.8,1-3.6c0.7-0.8,1.6-1.2,2.6-1.2
			c1,0,1.9,0.4,2.6,1.2c0.7,0.8,1,2,1,3.7c0,1.5-0.4,2.7-1.1,3.5c-0.7,0.8-1.6,1.2-2.6,1.2c-1.1,0-1.9-0.4-2.6-1.2
			C450.9-18.5,450.6-19.7,450.6-21.3 M448.4-21.3c0,2.3,0.6,4,1.9,5.1c1.1,0.9,2.4,1.4,3.9,1.4c1.7,0,3.1-0.6,4.2-1.7
			c1.1-1.1,1.6-2.7,1.6-4.7c0-1.6-0.2-2.9-0.7-3.8s-1.2-1.6-2.1-2.1c-0.9-0.5-1.9-0.8-3-0.8c-1.7,0-3.2,0.6-4.2,1.7
			C449-25,448.4-23.4,448.4-21.3"/>
		<path id="path1179" inkscape:connector-curvature="0" class="st0" d="M462.6-27.6v12.5h1.9V-17c0.5,0.9,0.9,1.5,1.3,1.8
			c0.4,0.3,0.9,0.4,1.4,0.4c0.7,0,1.4-0.2,2.2-0.7l-0.7-2c-0.5,0.3-1,0.5-1.5,0.5c-0.5,0-0.9-0.1-1.2-0.4c-0.4-0.3-0.6-0.7-0.8-1.2
			c-0.2-0.8-0.4-1.6-0.4-2.5v-6.5H462.6z"/>
		<path id="path1181" inkscape:connector-curvature="0" class="st0" d="M472-21.1c0-1.6,0.3-2.8,1-3.6c0.6-0.8,1.5-1.1,2.4-1.1
			c1,0,1.8,0.4,2.4,1.1c0.7,0.7,1,1.9,1,3.5c0,1.5-0.3,2.7-1,3.5c-0.7,0.8-1.5,1.2-2.4,1.2c-0.9,0-1.7-0.4-2.4-1.1
			C472.3-18.4,472-19.6,472-21.1 M470.2-28.6l2.1-0.3c0.1-0.6,0.3-1.1,0.7-1.4c0.5-0.4,1.2-0.6,2.1-0.6c1,0,1.7,0.2,2.3,0.6
			c0.5,0.4,0.9,0.9,1.1,1.6c0.1,0.4,0.2,1.3,0.2,2.7c-0.9-1.1-2.1-1.6-3.5-1.6c-1.7,0-3,0.6-4,1.9c-0.9,1.2-1.4,2.7-1.4,4.5
			c0,1.2,0.2,2.3,0.6,3.3c0.4,1,1.1,1.8,1.9,2.3c0.8,0.5,1.8,0.8,2.9,0.8c1.5,0,2.7-0.6,3.6-1.8v1.5h2v-10.8c0-1.9-0.2-3.3-0.6-4.1
			c-0.4-0.8-1-1.5-1.9-1.9c-0.9-0.5-1.9-0.7-3.2-0.7c-1.5,0-2.7,0.3-3.6,1C470.6-30.9,470.2-29.9,470.2-28.6"/>
	</g>
	<g id="g1872">
		<path id="path1183" inkscape:connector-curvature="0" class="st0" d="M315.4,268.6c-1.5-9.5-28.2-17.1-60.9-17.1
			c-9.1,0-17.7,0.6-25.4,1.6c-0.2-12.7,0.5-24.6,1.5-34l-7.8,2.2c-6.4,12.8-10.8,24.6-13.5,36.1c-9.2,3-15,6.9-15.7,11.2
			c1.5-37.7,28.2-67.7,60.9-67.7C287.2,200.8,313.9,230.9,315.4,268.6 M208.3,262c-1.3,6.4-2.1,12.8-2.6,19.2
			c-7.6-2.6-12.1-5.8-12.1-9.2c0-0.7,0-1.4,0-2c0,0.3,0.1,0.6,0.2,0.9C194.8,267.5,200.1,264.4,208.3,262 M223.9,13.5
			c-8.4,3.1-13.7,7.6-13.7,12.5c0,4.9,5.3,9.3,13.7,12.5C211.2,35.6,203,31.1,203,26C203,20.9,211.2,16.4,223.9,13.5 M285.2,38.5
			c8.4-3.1,13.7-7.6,13.7-12.5c0-4.9-5.3-9.3-13.7-12.5c12.7,2.8,20.9,7.4,20.9,12.5C306.1,31.1,297.8,35.6,285.2,38.5 M290.5,373.1
			l-12.3-31c26.2,2.4,44.9,8.8,44.9,16.3C323.1,364.6,310.1,370.1,290.5,373.1 M264.5,341.3l13,33.5c-7.2,0.6-15,1-23,1
			c-37.9,0-68.6-7.8-68.6-17.3c0-9.6,30.7-17.3,68.6-17.3C257.9,341.1,261.3,341.1,264.5,341.3 M243.5,287.2l19.5,50
			c-2.8-0.1-5.6-0.1-8.4-0.1c-31.7,0-59,5.1-71.3,12.5c-3.3-12.8-5.2-26.7-5.2-41.2c0-62.8,34.3-113.8,76.5-113.8
			c42.3,0,76.5,50.9,76.5,113.8c0,14.5-1.8,28.5-5.2,41.2c-9.3-5.6-27.3-9.9-49.3-11.7l-20-50.5c32.7-0.3,58.9-7,58.9-15.4
			c0-0.7,0-1.4,0-2c0,0.3-0.1,0.6-0.2,0.9c-2.4-7.9-28.7-14.2-60.8-14.2c-9,0-17.6,0.5-25.3,1.4c0.3,9.4,1.1,19,2.7,28.3
			C235.6,286.7,239.5,287,243.5,287.2 M69.5,317.1v89c-20,1.4-38.9,5.5-52.1,12.3v-89C30.6,322.6,49.5,318.5,69.5,317.1 M142.1,323
			c6.2,1.8,11.8,3.9,16.7,6.4v89c-4.9-2.5-10.5-4.7-16.7-6.4V323z M43.3,36.9c-11.7,3.9-19,9.5-19,15.6c0,6.1,7.3,11.6,19,15.6
			c-17.6-3.5-29.1-9.2-29.1-15.6C14.2,46.1,25.7,40.5,43.3,36.9 M128.5,68.1c11.7-3.9,19-9.4,19-15.6c0-6.1-7.3-11.7-19-15.6
			c17.6,3.5,29.1,9.2,29.1,15.6C157.5,58.9,146.1,64.5,128.5,68.1 M262.8,44.6c35.7-1.2,63.4-10.3,63.4-21.4
			c0-11.9-32.1-21.5-71.6-21.5c-39.6,0-71.7,9.6-71.7,21.5c0,11.1,27.7,20.2,63.4,21.4v102c0,6.4-1.4,12.3-4.1,17.6
			c9.2,0.3,18.2,4.3,24.7,11.5l2.8,3.1c-14.8-4.8-30.8-3.7-44.8,2.9l-5,2.4c-22.7,14.7-40.4,43.3-48.1,78.6V52.8C171.8,4,0,4,0,52.8
			v85.8c8.6-24.2,63.9-33.8,109.3-28.6v178C63.9,282.8,8.6,292.4,0,316.6v95.7c0,18.9,7.9,35.2,23.6,48.6
			c16.1,13.7,24.2,30.4,24.2,49.8V567c19-7.8,54.3-6.7,68.7,3.3c-24.5-9.6-74.5-5-74.5,13.8v57.2c0,24.9,87.7,24.9,87.7,0v-57.2
			c0-3.8-2.1-7.1-5.6-9.7v-63.9c0-19.4,8.1-36,24.1-49.7c15.6-13.3,23.5-29.6,23.5-48.5v-69.3c1.3,5.8,2.8,11.4,4.6,16.8h0.1
			c2.7,11.1,36.7,19.9,78.1,19.9c8.6,0,16.9-0.4,24.6-1.1l19.4,49.8c3.5,0.3,7.4-0.5,8.6-4.6c-0.4,4.6-4.2,6.6-7.5,7.1
			c0.9,1.4,2.1,2.7,3.5,3.5c3.2-1.3,6.1-3.8,5.3-7.9c1.5,3.8-0.4,7-2.7,9l0.3,0.1c1.5,0.4,3,0.5,4.4,0.2c1.6-3,2.3-6.9-0.9-9.6
			c3.6,2,4.2,5.7,3.7,8.7c0.8-0.4,1.5-0.8,2.2-1.3l38-31.7c2.3-1.9,2.9-5.2,1.4-7.8c-1.5-2.6-4.6-3.7-7.4-2.7L310,422.3l-17.9-45.1
			c22.8-3.4,38.7-9.8,40.5-17.3h0.1c5.7-17.2,8.9-36.5,8.9-57c0-56.4-24.2-104.3-58.1-122.1c-13.1-6.9-20.7-19.5-20.7-34.3V44.6z"/>
	</g>
</g>
</svg>
