<svg xmlns="http://www.w3.org/2000/svg" viewBox="0 0 16.01 14.27"><title>blog-comments</title><path d="M8.43,0C3.73,0,0,2.75,0,6.14A5.61,5.61,0,0,0,3.07,10.9c.43.26.48,2.17-2,3.32A6.37,6.37,0,0,0,6.76,12a11.7,11.7,0,0,0,1.68.24c4.71,0,7.58-2.71,7.58-6.1S13.14,0,8.43,0ZM4.26,7.76a1.5,1.5,0,1,1,1.5-1.5A1.5,1.5,0,0,1,4.26,7.76ZM8,7.76a1.5,1.5,0,1,1,1.5-1.5A1.5,1.5,0,0,1,8,7.76Zm3.75,0a1.5,1.5,0,1,1,1.5-1.5A1.5,1.5,0,0,1,11.76,7.76Z" transform="translate(0)" style="fill:#95e1d3;fill-rule:evenodd"/></svg>