<svg xmlns="http://www.w3.org/2000/svg" viewBox="0 0 19.44 11.25"><title>blog-views</title><path d="M9.72,3.65a1.82,1.82,0,1,0,1.82,1.82A1.82,1.82,0,0,0,9.72,3.65Zm9.72,1.94v0h0v0h0a.75.75,0,0,0-.2-.41,14.93,14.93,0,0,0-2.11-2A13.39,13.39,0,0,0,11.62.2,9,9,0,0,0,8.07.15,11,11,0,0,0,5,1.27,16.81,16.81,0,0,0,.85,4.39c-.22.23-.45.46-.65.71a.78.78,0,0,0,0,1,15,15,0,0,0,2.11,2A13.4,13.4,0,0,0,7.81,11a9,9,0,0,0,3.55.05A11,11,0,0,0,14.45,10a16.8,16.8,0,0,0,4.12-3.12c.22-.23.45-.46.65-.71a.75.75,0,0,0,.2-.41h0v0h0v-.1ZM9.72,9.12a3.64,3.64,0,1,1,3.65-3.64A3.65,3.65,0,0,1,9.72,9.12Z" transform="translate(0)" style="fill:#95e1d3;fill-rule:evenodd"/></svg>