<?xml version="1.0" encoding="utf-8"?>
<!-- Generator: Adobe Illustrator 21.0.0, SVG Export Plug-In . SVG Version: 6.00 Build 0)  -->
<svg version="1.1" id="Слой_1" xmlns="http://www.w3.org/2000/svg" xmlns:xlink="http://www.w3.org/1999/xlink" x="0px" y="0px"
	 viewBox="0 0 17.9 17.8" style="enable-background:new 0 0 17.9 17.8;" xml:space="preserve">
<style type="text/css">
	.st0{fill:#95E1D3;}
</style>
<title>ico-dribbble</title>
<path class="st0" d="M17.7,7.1c-0.1-0.6-0.3-1.1-0.5-1.7c-0.2-0.5-0.5-1-0.8-1.5C15.7,3,14.9,2.2,14,1.5c-1-0.7-2.1-1.1-3.2-1.3
	c-1.2-0.2-2.4-0.2-3.6,0C6.6,0.3,6,0.5,5.5,0.7c-0.5,0.2-1,0.5-1.5,0.8C3.5,1.8,3,2.2,2.6,2.6C0.9,4.3,0,6.5,0,8.9
	c0,1.8,0.5,3.5,1.5,5c1,1.4,2.3,2.5,3.9,3.2c0.5,0.2,1.1,0.4,1.7,0.5c1.2,0.2,2.4,0.2,3.6,0c0.6-0.1,1.1-0.3,1.7-0.5
	c0.5-0.2,1-0.5,1.5-0.8c0.5-0.3,0.9-0.7,1.3-1.1c0.4-0.4,0.8-0.8,1.1-1.3c0.3-0.5,0.6-1,0.8-1.5c0.2-0.5,0.4-1.1,0.5-1.7
	C17.9,9.5,17.9,8.3,17.7,7.1L17.7,7.1z M8.9,1.3c1.8,0,3.6,0.7,5,1.9c-1,1.3-2.4,2.3-3.9,2.8C9.1,4.4,8.2,2.9,7.1,1.5
	C7.7,1.4,8.3,1.3,8.9,1.3z M7.1,1.5L7.1,1.5z M5.7,2c1,1.4,2,2.9,2.8,4.4C6.2,7,3.9,7.3,1.5,7.3C2,5,3.5,3,5.7,2z M3.3,14
	c-1.3-1.4-2-3.2-2-5.1c0-0.1,0-0.2,0-0.2c2.7,0,5.3-0.4,7.9-1.1C9.4,8,9.6,8.4,9.8,8.9L9.5,9C6.9,9.9,4.7,11.7,3.3,14z M8.9,16.5
	c-1.7,0-3.4-0.6-4.7-1.6c1.3-2.3,3.5-4,6-4.7h0.1C11,12,11.6,14,11.9,16C11,16.3,10,16.5,8.9,16.5L8.9,16.5z M13.2,15.2
	c-0.3-1.8-0.8-3.7-1.5-5.4c1.6-0.2,3.2-0.1,4.8,0.3C16.1,12.2,15,14,13.2,15.2L13.2,15.2z M11.3,8.6l-0.2-0.4
	c-0.2-0.4-0.3-0.7-0.5-1.1c1.7-0.6,3.1-1.6,4.3-3c1.1,1.3,1.7,3,1.7,4.8C14.8,8.5,13,8.4,11.3,8.6z"/>
</svg>
