<?xml version="1.0" encoding="utf-8"?>
<!-- Generator: Adobe Illustrator 21.0.0, SVG Export Plug-In . SVG Version: 6.00 Build 0)  -->
<svg version="1.1" id="Слой_1" xmlns="http://www.w3.org/2000/svg" xmlns:xlink="http://www.w3.org/1999/xlink" x="0px" y="0px"
	 viewBox="0 0 17.9 17.8" style="enable-background:new 0 0 17.9 17.8;" xml:space="preserve">
<style type="text/css">
	.st0{fill:#95E1D3;}
</style>
<title>ico-google_plus</title>
<path class="st0" d="M11.4,0H6.1C3.4,0,1.2,2,1.2,4.1C1.1,6.2,2.7,8,4.7,8.1c0.2,0,0.3,0,0.5,0h0.5c-0.2,0.3-0.3,0.6-0.3,1
	c0,0.5,0.3,1,0.8,1.4h-1c-3,0-5.2,2.1-5.2,4.1s2.6,3.2,5.7,3.2c3.5,0,5.6-2,5.6-4c0-1.6-0.3-2.4-2-3.7C8.8,9.8,7.7,9,7.7,8.5
	s0.1-0.8,1-1.5c0.9-0.6,1.5-1.7,1.6-2.8c0.1-1.2-0.5-2.3-1.5-3h1.4L11.4,0z M9.6,13.5c0,0.2,0.1,0.4,0.1,0.6c0,1.6-1,2.9-4,2.9
	C3.5,16.9,2,15.6,2,14s1.8-2.9,3.9-2.9c0.5,0,0.9,0.1,1.4,0.2C8.4,12.1,9.4,12.6,9.6,13.5z M6.2,7.3c-1.6-0.2-2.9-1.6-3-3.2
	C2.9,2.2,3.9,0.8,5.3,0.9s2.6,1.6,2.9,3.4C8.4,6.1,7.6,7.3,6.2,7.3z M15.4,2.7V0.2h-1.2v2.4h-2.4v1.2h2.4v2.4h1.2V3.9h2.4V2.7
	L15.4,2.7z"/>
</svg>
