<svg xmlns="http://www.w3.org/2000/svg" viewBox="0 0 32 30.5"><title>service-ico-1</title><path d="M9.71,1.29A6,6,0,0,0,1.29,9.71,16.06,16.06,0,0,1,9.71,1.29ZM22,14.5H17.5V8a1.5,1.5,0,0,0-3,0v8A1.5,1.5,0,0,0,16,17.5h6a1.5,1.5,0,0,0,0-3Zm-6-13A14.49,14.49,0,0,0,5.45,25.93l-2,2a1.5,1.5,0,0,0,2.12,2.12L7.72,27.9a14.46,14.46,0,0,0,16.57,0l2.18,2.18a1.48,1.48,0,0,0,2.1-2.1l-2-2A14.49,14.49,0,0,0,16,1.5Zm0,26A11.5,11.5,0,1,1,27.5,16,11.5,11.5,0,0,1,16,27.5ZM26.13,0A5.84,5.84,0,0,0,22.5,1.26,15.72,15.72,0,0,1,30.74,9.5,5.87,5.87,0,0,0,26.13,0Z" style="fill:#95e1d3;fill-rule:evenodd"/></svg>