<svg xmlns="http://www.w3.org/2000/svg" viewBox="0 0 32 32"><title>service-ico-4</title><path d="M5.38,21.87l5.5,2.5a1.5,1.5,0,1,0,1.24-2.73l-5.5-2.5a1.5,1.5,0,1,0-1.24,2.73Zm0-5.5,5.5,2.5h0a1.5,1.5,0,1,0,1.24-2.73l-5.5-2.5a1.5,1.5,0,1,0-1.24,2.73Zm0-5.5,5.5,2.5a1.5,1.5,0,1,0,1.24-2.73l-5.5-2.5a1.5,1.5,0,1,0-1.24,2.73ZM20.5,19a1.49,1.49,0,0,0,.62-.13h0l5.5-2.5a1.5,1.5,0,0,0-1.24-2.73l-5.5,2.5A1.5,1.5,0,0,0,20.5,19Zm10-19a1.49,1.49,0,0,0-.57.11h0L16,5.88,2.09.12h0A1.5,1.5,0,0,0,0,1.5v23a1.5,1.5,0,0,0,.94,1.39l14.47,6a1.5,1.5,0,0,0,1.19,0l14.47-6A1.5,1.5,0,0,0,32,24.5V1.5A1.5,1.5,0,0,0,30.5,0Zm-16,28.26L3,23.5V3.74L14.5,8.5ZM29,23.5,17.5,28.26V8.5L29,3.74Zm-8.5,1a1.49,1.49,0,0,0,.62-.13l5.5-2.5a1.5,1.5,0,1,0-1.24-2.73l-5.5,2.5a1.5,1.5,0,0,0,.62,2.87Zm0-11a1.49,1.49,0,0,0,.62-.13l5.5-2.5a1.5,1.5,0,1,0-1.24-2.73l-5.5,2.5a1.5,1.5,0,0,0,.62,2.87Z" transform="translate(0)" style="fill:#95e1d3;fill-rule:evenodd"/></svg>