<?xml version="1.0" encoding="utf-8"?>
<!-- Generator: Adobe Illustrator 21.0.0, SVG Export Plug-In . SVG Version: 6.00 Build 0)  -->
<svg version="1.1" id="Слой_1" xmlns="http://www.w3.org/2000/svg" xmlns:xlink="http://www.w3.org/1999/xlink" x="0px" y="0px"
	 viewBox="0 0 25.6 25.6" style="enable-background:new 0 0 25.6 25.6;" xml:space="preserve">
<style type="text/css">
	.st0{fill:#F38181;}
</style>
<title>team-soc-ico-4</title>
<path class="st0" d="M22.4,0H3.2C1.4,0,0,1.4,0,3.2v19.2c0,1.8,1.4,3.2,3.2,3.2c0,0,0,0,0,0h19.2c1.8,0,3.2-1.4,3.2-3.2c0,0,0,0,0,0
	V3.2C25.6,1.4,24.2,0,22.4,0C22.4,0,22.4,0,22.4,0z M7.9,12.3c0-0.1,0-0.1,0-0.1s0-0.3,0.1-0.4v-0.2c0-0.1,0.1-0.2,0.1-0.3l0.1-0.2
	c0-0.1,0.1-0.2,0.1-0.3v-0.1l0,0c1.2-2.5,4.2-3.5,6.7-2.3c1,0.5,1.8,1.3,2.3,2.3l0,0v0.1c0,0.1,0.1,0.2,0.1,0.3l0.1,0.2
	c0,0.1,0.1,0.2,0.1,0.3v0.2c0,0.1,0,0.2,0.1,0.4s0,0.1,0,0.1c0.5,2.7-1.4,5.3-4.1,5.8s-5.3-1.4-5.8-4.1c-0.1-0.6-0.1-1.1,0-1.7H7.9z
	 M22.7,21.4c0,0.7-0.6,1.3-1.3,1.3c0,0,0,0,0,0H4.2c-0.7,0-1.3-0.6-1.3-1.3l0,0V10.7h2.4c-1.1,4.2,1.3,8.5,5.5,9.6
	c4.2,1.1,8.5-1.3,9.6-5.5c0.4-1.4,0.4-2.8,0-4.2h2.4V21.4z M22.7,6.7c0,0.7-0.6,1.3-1.3,1.3l0,0h-2.6c-0.7,0-1.3-0.6-1.3-1.3V4.2
	c0-0.7,0.6-1.3,1.3-1.3l0,0h2.6c0.7,0,1.3,0.6,1.3,1.3v0V6.7z"/>
</svg>
