<svg xmlns="http://www.w3.org/2000/svg" viewBox="0 0 10 16.01"><title>tumblr</title><path d="M7.6,13.4a2.3,2.3,0,0,1-1.21-.32,1.48,1.48,0,0,1-.61-.69,7,7,0,0,1-.09-1.73V6.56H9.38V3.7H5.69V0H3.43a6.2,6.2,0,0,1-.56,2A4.37,4.37,0,0,1,1.8,3.42,5.62,5.62,0,0,1,0,4.29V6.56H2.16v5.61a4.76,4.76,0,0,0,.23,1.68,2.88,2.88,0,0,0,.82,1.09,4.17,4.17,0,0,0,1.43.79A4.87,4.87,0,0,0,6.36,16a7.8,7.8,0,0,0,1.79-.19A9.56,9.56,0,0,0,10,15.14V12.61A4.34,4.34,0,0,1,7.6,13.4Z" style="fill:#95e1d3;fill-rule:evenodd"/></svg>